<svg width="378" height="62" viewBox="0 0 378 62" fill="none" xmlns="http://www.w3.org/2000/svg">
<rect width="161" height="62" fill="#E9280B"/>
<path d="M25.376 48V20.88H15.584V14.4H42.656V20.88H32.576V48H25.376ZM54.9091 48.48C52.1571 48.48 49.7571 47.92 47.7091 46.8C45.6611 45.68 44.0611 44.144 42.9091 42.192C41.7571 40.24 41.1811 38 41.1811 35.472C41.1811 33.52 41.5011 31.728 42.1411 30.096C42.7811 28.464 43.6771 27.056 44.8291 25.872C45.9811 24.656 47.3411 23.728 48.9091 23.088C50.5091 22.416 52.2371 22.08 54.0931 22.08C55.8211 22.08 57.4211 22.4 58.8931 23.04C60.3651 23.648 61.6291 24.528 62.6851 25.68C63.7731 26.8 64.6051 28.128 65.1811 29.664C65.7571 31.2 66.0131 32.88 65.9491 34.704L65.9011 36.816H45.5011L44.3971 32.64H60.2851L59.5171 33.504V32.448C59.4531 31.584 59.1651 30.8 58.6531 30.096C58.1731 29.392 57.5491 28.848 56.7811 28.464C56.0131 28.08 55.1491 27.888 54.1891 27.888C52.7811 27.888 51.5811 28.16 50.5891 28.704C49.6291 29.248 48.8931 30.048 48.3811 31.104C47.8691 32.16 47.6131 33.44 47.6131 34.944C47.6131 36.48 47.9331 37.808 48.5731 38.928C49.2451 40.048 50.1731 40.928 51.3571 41.568C52.5731 42.176 53.9971 42.48 55.6291 42.48C56.7491 42.48 57.7731 42.304 58.7011 41.952C59.6291 41.6 60.6211 40.992 61.6771 40.128L64.9411 44.688C64.0131 45.52 62.9891 46.224 61.8691 46.8C60.7491 47.344 59.5971 47.76 58.4131 48.048C57.2291 48.336 56.0611 48.48 54.9091 48.48ZM80.4901 48.48C78.3781 48.48 76.4741 47.904 74.7781 46.752C73.0821 45.6 71.7381 44.032 70.7461 42.048C69.7541 40.064 69.2581 37.792 69.2581 35.232C69.2581 32.672 69.7541 30.416 70.7461 28.464C71.7701 26.48 73.1461 24.928 74.8741 23.808C76.6021 22.656 78.5701 22.08 80.7781 22.08C82.0261 22.08 83.1621 22.272 84.1861 22.656C85.2421 23.008 86.1541 23.504 86.9221 24.144C87.7221 24.784 88.3941 25.52 88.9381 26.352C89.4821 27.184 89.8661 28.08 90.0901 29.04L88.6501 28.8V22.608H95.4181V48H88.5541V41.904L90.0901 41.76C89.8341 42.656 89.4181 43.504 88.8421 44.304C88.2661 45.104 87.5461 45.824 86.6821 46.464C85.8501 47.072 84.9061 47.568 83.8501 47.952C82.7941 48.304 81.6741 48.48 80.4901 48.48ZM82.3621 42.576C83.6421 42.576 84.7621 42.272 85.7221 41.664C86.6821 41.056 87.4181 40.208 87.9301 39.12C88.4741 38 88.7461 36.704 88.7461 35.232C88.7461 33.792 88.4741 32.528 87.9301 31.44C87.4181 30.352 86.6821 29.504 85.7221 28.896C84.7621 28.256 83.6421 27.936 82.3621 27.936C81.1141 27.936 80.0101 28.256 79.0501 28.896C78.1221 29.504 77.3861 30.352 76.8421 31.44C76.2981 32.528 76.0261 33.792 76.0261 35.232C76.0261 36.704 76.2981 38 76.8421 39.12C77.3861 40.208 78.1221 41.056 79.0501 41.664C80.0101 42.272 81.1141 42.576 82.3621 42.576ZM102.204 48V22.608H108.78L108.924 27.456L107.916 27.648C108.268 26.816 108.732 26.064 109.308 25.392C109.884 24.72 110.556 24.144 111.324 23.664C112.124 23.184 112.956 22.816 113.82 22.56C114.684 22.272 115.548 22.128 116.412 22.128C117.724 22.128 118.908 22.336 119.964 22.752C121.02 23.168 121.916 23.824 122.652 24.72C123.388 25.584 123.964 26.736 124.38 28.176L123.324 28.08L123.66 27.312C124.076 26.544 124.604 25.856 125.244 25.248C125.884 24.608 126.604 24.064 127.404 23.616C128.204 23.136 129.036 22.768 129.9 22.512C130.764 22.256 131.612 22.128 132.444 22.128C134.428 22.128 136.076 22.528 137.388 23.328C138.7 24.096 139.676 25.264 140.316 26.832C140.988 28.4 141.324 30.32 141.324 32.592V48H134.508V33.072C134.508 31.92 134.348 30.976 134.028 30.24C133.708 29.504 133.244 28.96 132.636 28.608C132.028 28.224 131.244 28.032 130.284 28.032C129.548 28.032 128.86 28.16 128.22 28.416C127.612 28.64 127.068 28.976 126.588 29.424C126.14 29.84 125.788 30.336 125.532 30.912C125.276 31.488 125.148 32.128 125.148 32.832V48H118.332V33.024C118.332 31.968 118.156 31.072 117.804 30.336C117.484 29.568 117.02 28.992 116.412 28.608C115.804 28.224 115.052 28.032 114.156 28.032C113.42 28.032 112.732 28.16 112.092 28.416C111.484 28.64 110.956 28.976 110.508 29.424C110.06 29.84 109.692 30.336 109.404 30.912C109.148 31.488 109.02 32.112 109.02 32.784V48H102.204ZM163.493 48V14.4H170.069L182.309 34.32L177.989 34.272L190.373 14.4H196.661V48H189.605V36.48C189.605 33.6 189.669 31.008 189.797 28.704C189.957 26.4 190.213 24.112 190.565 21.84L191.429 24.096L181.589 39.36H178.421L168.773 24.192L169.589 21.84C169.941 23.984 170.181 26.192 170.309 28.464C170.469 30.704 170.549 33.376 170.549 36.48V48H163.493ZM216.487 48.48C213.735 48.48 211.335 47.92 209.287 46.8C207.239 45.68 205.639 44.144 204.487 42.192C203.335 40.24 202.759 38 202.759 35.472C202.759 33.52 203.079 31.728 203.719 30.096C204.359 28.464 205.255 27.056 206.407 25.872C207.559 24.656 208.919 23.728 210.487 23.088C212.087 22.416 213.815 22.08 215.671 22.08C217.399 22.08 218.999 22.4 220.471 23.04C221.943 23.648 223.207 24.528 224.263 25.68C225.351 26.8 226.183 28.128 226.759 29.664C227.335 31.2 227.591 32.88 227.527 34.704L227.479 36.816H207.079L205.975 32.64H221.863L221.095 33.504V32.448C221.031 31.584 220.743 30.8 220.231 30.096C219.751 29.392 219.127 28.848 218.359 28.464C217.591 28.08 216.727 27.888 215.767 27.888C214.359 27.888 213.159 28.16 212.167 28.704C211.207 29.248 210.471 30.048 209.959 31.104C209.447 32.16 209.191 33.44 209.191 34.944C209.191 36.48 209.511 37.808 210.151 38.928C210.823 40.048 211.751 40.928 212.935 41.568C214.151 42.176 215.575 42.48 217.207 42.48C218.327 42.48 219.351 42.304 220.279 41.952C221.207 41.6 222.199 40.992 223.255 40.128L226.519 44.688C225.591 45.52 224.567 46.224 223.447 46.8C222.327 47.344 221.175 47.76 219.991 48.048C218.807 48.336 217.639 48.48 216.487 48.48ZM232.516 48V22.608H239.092L239.236 27.456L238.228 27.648C238.58 26.816 239.044 26.064 239.62 25.392C240.196 24.72 240.868 24.144 241.636 23.664C242.436 23.184 243.268 22.816 244.132 22.56C244.996 22.272 245.86 22.128 246.724 22.128C248.036 22.128 249.22 22.336 250.276 22.752C251.332 23.168 252.228 23.824 252.964 24.72C253.7 25.584 254.276 26.736 254.692 28.176L253.636 28.08L253.972 27.312C254.388 26.544 254.916 25.856 255.556 25.248C256.196 24.608 256.916 24.064 257.716 23.616C258.516 23.136 259.348 22.768 260.212 22.512C261.076 22.256 261.924 22.128 262.756 22.128C264.74 22.128 266.388 22.528 267.7 23.328C269.012 24.096 269.988 25.264 270.628 26.832C271.3 28.4 271.636 30.32 271.636 32.592V48H264.82V33.072C264.82 31.92 264.66 30.976 264.34 30.24C264.02 29.504 263.556 28.96 262.948 28.608C262.34 28.224 261.556 28.032 260.596 28.032C259.86 28.032 259.172 28.16 258.532 28.416C257.924 28.64 257.38 28.976 256.9 29.424C256.452 29.84 256.1 30.336 255.844 30.912C255.588 31.488 255.46 32.128 255.46 32.832V48H248.644V33.024C248.644 31.968 248.468 31.072 248.116 30.336C247.796 29.568 247.332 28.992 246.724 28.608C246.116 28.224 245.364 28.032 244.468 28.032C243.732 28.032 243.044 28.16 242.404 28.416C241.796 28.64 241.268 28.976 240.82 29.424C240.372 29.84 240.004 30.336 239.716 30.912C239.46 31.488 239.332 32.112 239.332 32.784V48H232.516ZM292.767 48.48C291.647 48.48 290.559 48.32 289.503 48C288.447 47.68 287.487 47.248 286.623 46.704C285.759 46.128 285.039 45.488 284.463 44.784C283.887 44.048 283.519 43.296 283.359 42.528L284.895 41.952L284.559 47.904H278.127V12.48H284.943V28.56L283.647 28.032C283.839 27.264 284.207 26.528 284.751 25.824C285.295 25.088 285.983 24.448 286.815 23.904C287.647 23.328 288.559 22.88 289.551 22.56C290.543 22.24 291.567 22.08 292.623 22.08C294.831 22.08 296.799 22.656 298.527 23.808C300.255 24.928 301.615 26.48 302.607 28.464C303.631 30.448 304.143 32.72 304.143 35.28C304.143 37.84 303.647 40.112 302.655 42.096C301.663 44.08 300.303 45.648 298.575 46.8C296.879 47.92 294.943 48.48 292.767 48.48ZM291.135 42.672C292.415 42.672 293.519 42.368 294.447 41.76C295.407 41.12 296.159 40.256 296.703 39.168C297.247 38.048 297.519 36.752 297.519 35.28C297.519 33.84 297.247 32.56 296.703 31.44C296.191 30.32 295.455 29.456 294.495 28.848C293.535 28.24 292.415 27.936 291.135 27.936C289.855 27.936 288.735 28.24 287.775 28.848C286.815 29.456 286.063 30.32 285.519 31.44C284.975 32.56 284.703 33.84 284.703 35.28C284.703 36.752 284.975 38.048 285.519 39.168C286.063 40.256 286.815 41.12 287.775 41.76C288.735 42.368 289.855 42.672 291.135 42.672ZM321.347 48.48C318.595 48.48 316.195 47.92 314.147 46.8C312.099 45.68 310.499 44.144 309.347 42.192C308.195 40.24 307.619 38 307.619 35.472C307.619 33.52 307.939 31.728 308.579 30.096C309.219 28.464 310.115 27.056 311.267 25.872C312.419 24.656 313.779 23.728 315.347 23.088C316.947 22.416 318.675 22.08 320.531 22.08C322.259 22.08 323.859 22.4 325.331 23.04C326.803 23.648 328.067 24.528 329.123 25.68C330.211 26.8 331.043 28.128 331.619 29.664C332.195 31.2 332.451 32.88 332.387 34.704L332.339 36.816H311.939L310.835 32.64H326.723L325.955 33.504V32.448C325.891 31.584 325.603 30.8 325.091 30.096C324.611 29.392 323.987 28.848 323.219 28.464C322.451 28.08 321.587 27.888 320.627 27.888C319.219 27.888 318.019 28.16 317.027 28.704C316.067 29.248 315.331 30.048 314.819 31.104C314.307 32.16 314.051 33.44 314.051 34.944C314.051 36.48 314.371 37.808 315.011 38.928C315.683 40.048 316.611 40.928 317.795 41.568C319.011 42.176 320.435 42.48 322.067 42.48C323.187 42.48 324.211 42.304 325.139 41.952C326.067 41.6 327.059 40.992 328.115 40.128L331.379 44.688C330.451 45.52 329.427 46.224 328.307 46.8C327.187 47.344 326.035 47.76 324.851 48.048C323.667 48.336 322.499 48.48 321.347 48.48ZM337.424 48V22.608H344L344.24 30.768L343.088 29.088C343.472 27.776 344.096 26.592 344.96 25.536C345.824 24.448 346.832 23.6 347.984 22.992C349.168 22.384 350.4 22.08 351.68 22.08C352.224 22.08 352.752 22.128 353.264 22.224C353.776 22.32 354.208 22.432 354.56 22.56L352.736 30.048C352.352 29.856 351.888 29.696 351.344 29.568C350.8 29.408 350.24 29.328 349.664 29.328C348.896 29.328 348.176 29.472 347.504 29.76C346.864 30.016 346.304 30.4 345.824 30.912C345.344 31.392 344.96 31.968 344.672 32.64C344.416 33.312 344.288 34.048 344.288 34.848V48H337.424ZM367.015 48.48C364.647 48.48 362.535 48.096 360.679 47.328C358.855 46.528 357.383 45.44 356.263 44.064L360.487 40.416C361.479 41.472 362.583 42.24 363.799 42.72C365.015 43.168 366.231 43.392 367.447 43.392C367.927 43.392 368.359 43.344 368.743 43.248C369.159 43.12 369.511 42.96 369.799 42.768C370.087 42.544 370.295 42.288 370.423 42C370.583 41.68 370.663 41.344 370.663 40.992C370.663 40.288 370.375 39.728 369.799 39.312C369.479 39.152 368.983 38.96 368.311 38.736C367.639 38.48 366.775 38.208 365.719 37.92C364.087 37.504 362.695 37.024 361.543 36.48C360.423 35.904 359.527 35.264 358.855 34.56C358.279 33.888 357.831 33.168 357.511 32.4C357.223 31.6 357.079 30.72 357.079 29.76C357.079 28.608 357.335 27.568 357.847 26.64C358.359 25.68 359.063 24.864 359.959 24.192C360.887 23.52 361.943 23.008 363.127 22.656C364.311 22.272 365.559 22.08 366.871 22.08C368.183 22.08 369.463 22.24 370.711 22.56C371.959 22.88 373.111 23.344 374.167 23.952C375.255 24.528 376.199 25.216 376.999 26.016L373.351 30.048C372.775 29.504 372.119 29.008 371.383 28.56C370.679 28.112 369.943 27.76 369.174 27.504C368.407 27.248 367.719 27.12 367.111 27.12C366.567 27.12 366.071 27.168 365.623 27.264C365.207 27.36 364.855 27.504 364.567 27.696C364.279 27.888 364.055 28.144 363.895 28.464C363.767 28.752 363.703 29.072 363.703 29.424C363.703 29.776 363.783 30.112 363.943 30.432C364.135 30.752 364.391 31.024 364.711 31.248C365.063 31.44 365.575 31.664 366.247 31.92C366.951 32.176 367.895 32.464 369.079 32.784C370.615 33.2 371.911 33.664 372.967 34.176C374.055 34.688 374.919 35.28 375.559 35.952C376.103 36.528 376.503 37.184 376.759 37.92C377.015 38.656 377.143 39.472 377.143 40.368C377.143 41.936 376.695 43.344 375.799 44.592C374.935 45.808 373.735 46.768 372.199 47.472C370.663 48.144 368.935 48.48 367.015 48.48Z" fill="white"/>
</svg>
