<svg width="393" height="62" viewBox="0 0 393 62" fill="none" xmlns="http://www.w3.org/2000/svg">
<rect width="150" height="62" fill="#E9280B"/>
<path d="M23.712 40.184H9.744L7.344 47H1.632L13.584 13.592H19.92L31.872 47H26.112L23.712 40.184ZM22.176 35.72L16.752 20.216L11.28 35.72H22.176ZM42.5408 24.488C43.4688 23.208 44.7328 22.168 46.3328 21.368C47.9648 20.536 49.7728 20.12 51.7568 20.12C54.0928 20.12 56.2048 20.68 58.0928 21.8C59.9808 22.92 61.4688 24.52 62.5568 26.6C63.6448 28.648 64.1888 31 64.1888 33.656C64.1888 36.312 63.6448 38.696 62.5568 40.808C61.4688 42.888 59.9648 44.52 58.0448 45.704C56.1568 46.856 54.0608 47.432 51.7568 47.432C49.7088 47.432 47.8848 47.032 46.2848 46.232C44.7168 45.432 43.4688 44.408 42.5408 43.16V47H37.0688V11.48H42.5408V24.488ZM58.6208 33.656C58.6208 31.832 58.2368 30.264 57.4688 28.952C56.7328 27.608 55.7408 26.6 54.4928 25.928C53.2768 25.224 51.9648 24.872 50.5568 24.872C49.1808 24.872 47.8688 25.224 46.6208 25.928C45.4048 26.632 44.4128 27.656 43.6448 29C42.9088 30.344 42.5408 31.928 42.5408 33.752C42.5408 35.576 42.9088 37.176 43.6448 38.552C44.4128 39.896 45.4048 40.92 46.6208 41.624C47.8688 42.328 49.1808 42.68 50.5568 42.68C51.9648 42.68 53.2768 42.328 54.4928 41.624C55.7408 40.888 56.7328 39.832 57.4688 38.456C58.2368 37.08 58.6208 35.48 58.6208 33.656ZM81.072 47.432C78.576 47.432 76.32 46.872 74.304 45.752C72.288 44.6 70.704 43 69.552 40.952C68.4 38.872 67.824 36.472 67.824 33.752C67.824 31.064 68.416 28.68 69.6 26.6C70.784 24.52 72.4 22.92 74.448 21.8C76.496 20.68 78.784 20.12 81.312 20.12C83.84 20.12 86.128 20.68 88.176 21.8C90.224 22.92 91.84 24.52 93.024 26.6C94.208 28.68 94.8 31.064 94.8 33.752C94.8 36.44 94.192 38.824 92.976 40.904C91.76 42.984 90.096 44.6 87.984 45.752C85.904 46.872 83.6 47.432 81.072 47.432ZM81.072 42.68C82.48 42.68 83.792 42.344 85.008 41.672C86.256 41 87.264 39.992 88.032 38.648C88.8 37.304 89.184 35.672 89.184 33.752C89.184 31.832 88.816 30.216 88.08 28.904C87.344 27.56 86.368 26.552 85.152 25.88C83.936 25.208 82.624 24.872 81.216 24.872C79.808 24.872 78.496 25.208 77.28 25.88C76.096 26.552 75.152 27.56 74.448 28.904C73.744 30.216 73.392 31.832 73.392 33.752C73.392 36.6 74.112 38.808 75.552 40.376C77.024 41.912 78.864 42.68 81.072 42.68ZM124.161 20.552V47H118.689V43.88C117.825 44.968 116.689 45.832 115.281 46.472C113.905 47.08 112.433 47.384 110.865 47.384C108.785 47.384 106.913 46.952 105.249 46.088C103.617 45.224 102.321 43.944 101.361 42.248C100.433 40.552 99.9694 38.504 99.9694 36.104V20.552H105.393V35.288C105.393 37.656 105.985 39.48 107.169 40.76C108.353 42.008 109.969 42.632 112.017 42.632C114.065 42.632 115.681 42.008 116.865 40.76C118.081 39.48 118.689 37.656 118.689 35.288V20.552H124.161ZM137.765 25.016V39.656C137.765 40.648 137.989 41.368 138.437 41.816C138.917 42.232 139.717 42.44 140.837 42.44H144.197V47H139.877C137.413 47 135.525 46.424 134.213 45.272C132.901 44.12 132.245 42.248 132.245 39.656V25.016H129.125V20.552H132.245V13.976H137.765V20.552H144.197V25.016H137.765ZM168.093 25.016V39.656C168.093 40.648 168.317 41.368 168.765 41.816C169.245 42.232 170.045 42.44 171.165 42.44H174.525V47H170.205C167.741 47 165.853 46.424 164.541 45.272C163.229 44.12 162.573 42.248 162.573 39.656V25.016H159.453V20.552H162.573V13.976H168.093V20.552H174.525V25.016H168.093ZM193.249 20.12C195.265 20.12 197.057 20.552 198.625 21.416C200.225 22.28 201.473 23.56 202.369 25.256C203.297 26.952 203.761 29 203.761 31.4V47H198.337V32.216C198.337 29.848 197.745 28.04 196.561 26.792C195.377 25.512 193.761 24.872 191.713 24.872C189.665 24.872 188.033 25.512 186.817 26.792C185.633 28.04 185.041 29.848 185.041 32.216V47H179.569V11.48H185.041V23.624C185.969 22.504 187.137 21.64 188.545 21.032C189.985 20.424 191.553 20.12 193.249 20.12ZM213.525 17.048C212.533 17.048 211.701 16.712 211.029 16.04C210.357 15.368 210.021 14.536 210.021 13.544C210.021 12.552 210.357 11.72 211.029 11.048C211.701 10.376 212.533 10.04 213.525 10.04C214.485 10.04 215.301 10.376 215.973 11.048C216.645 11.72 216.981 12.552 216.981 13.544C216.981 14.536 216.645 15.368 215.973 16.04C215.301 16.712 214.485 17.048 213.525 17.048ZM216.213 20.552V47H210.741V20.552H216.213ZM232.997 47.432C230.917 47.432 229.045 47.064 227.381 46.328C225.749 45.56 224.453 44.536 223.493 43.256C222.533 41.944 222.021 40.488 221.957 38.888H227.621C227.717 40.008 228.245 40.952 229.205 41.72C230.197 42.456 231.429 42.824 232.901 42.824C234.437 42.824 235.621 42.536 236.453 41.96C237.317 41.352 237.749 40.584 237.749 39.656C237.749 38.664 237.269 37.928 236.309 37.448C235.381 36.968 233.893 36.44 231.845 35.864C229.861 35.32 228.245 34.792 226.997 34.28C225.749 33.768 224.661 32.984 223.733 31.928C222.837 30.872 222.389 29.48 222.389 27.752C222.389 26.344 222.805 25.064 223.637 23.912C224.469 22.728 225.653 21.8 227.189 21.128C228.757 20.456 230.549 20.12 232.565 20.12C235.573 20.12 237.989 20.888 239.813 22.424C241.669 23.928 242.661 25.992 242.789 28.616H237.317C237.221 27.432 236.741 26.488 235.877 25.784C235.013 25.08 233.845 24.728 232.373 24.728C230.933 24.728 229.829 25 229.061 25.544C228.293 26.088 227.909 26.808 227.909 27.704C227.909 28.408 228.165 29 228.677 29.48C229.189 29.96 229.813 30.344 230.549 30.632C231.285 30.888 232.373 31.224 233.813 31.64C235.733 32.152 237.301 32.68 238.517 33.224C239.765 33.736 240.837 34.504 241.733 35.528C242.629 36.552 243.093 37.912 243.125 39.608C243.125 41.112 242.709 42.456 241.877 43.64C241.045 44.824 239.861 45.752 238.325 46.424C236.821 47.096 235.045 47.432 232.997 47.432ZM285.746 33.128C285.746 34.12 285.682 35.016 285.554 35.816H265.346C265.506 37.928 266.29 39.624 267.698 40.904C269.106 42.184 270.834 42.824 272.882 42.824C275.826 42.824 277.906 41.592 279.122 39.128H285.026C284.226 41.56 282.77 43.56 280.658 45.128C278.578 46.664 275.986 47.432 272.882 47.432C270.354 47.432 268.082 46.872 266.066 45.752C264.082 44.6 262.514 43 261.362 40.952C260.242 38.872 259.682 36.472 259.682 33.752C259.682 31.032 260.226 28.648 261.314 26.6C262.434 24.52 263.986 22.92 265.97 21.8C267.986 20.68 270.29 20.12 272.882 20.12C275.378 20.12 277.602 20.664 279.554 21.752C281.506 22.84 283.026 24.376 284.114 26.36C285.202 28.312 285.746 30.568 285.746 33.128ZM280.034 31.4C280.002 29.384 279.282 27.768 277.874 26.552C276.466 25.336 274.722 24.728 272.642 24.728C270.754 24.728 269.138 25.336 267.794 26.552C266.45 27.736 265.65 29.352 265.394 31.4H280.034ZM301.355 42.104L308.843 20.552H314.651L304.571 47H298.043L288.011 20.552H293.867L301.355 42.104ZM343.028 33.128C343.028 34.12 342.964 35.016 342.836 35.816H322.628C322.788 37.928 323.572 39.624 324.98 40.904C326.388 42.184 328.116 42.824 330.164 42.824C333.108 42.824 335.188 41.592 336.404 39.128H342.307C341.508 41.56 340.052 43.56 337.94 45.128C335.86 46.664 333.268 47.432 330.164 47.432C327.636 47.432 325.364 46.872 323.348 45.752C321.364 44.6 319.796 43 318.644 40.952C317.524 38.872 316.964 36.472 316.964 33.752C316.964 31.032 317.508 28.648 318.596 26.6C319.716 24.52 321.268 22.92 323.252 21.8C325.268 20.68 327.572 20.12 330.164 20.12C332.66 20.12 334.884 20.664 336.836 21.752C338.788 22.84 340.308 24.376 341.396 26.36C342.484 28.312 343.028 30.568 343.028 33.128ZM337.316 31.4C337.284 29.384 336.564 27.768 335.156 26.552C333.748 25.336 332.004 24.728 329.924 24.728C328.036 24.728 326.42 25.336 325.076 26.552C323.732 27.736 322.932 29.352 322.676 31.4H337.316ZM361.757 20.12C363.837 20.12 365.693 20.552 367.325 21.416C368.989 22.28 370.285 23.56 371.213 25.256C372.141 26.952 372.605 29 372.605 31.4V47H367.181V32.216C367.181 29.848 366.589 28.04 365.405 26.792C364.221 25.512 362.605 24.872 360.557 24.872C358.509 24.872 356.877 25.512 355.661 26.792C354.477 28.04 353.885 29.848 353.885 32.216V47H348.413V20.552H353.885V23.576C354.781 22.488 355.917 21.64 357.293 21.032C358.701 20.424 360.189 20.12 361.757 20.12ZM385.968 25.016V39.656C385.968 40.648 386.192 41.368 386.64 41.816C387.12 42.232 387.92 42.44 389.04 42.44H392.4V47H388.08C385.616 47 383.728 46.424 382.416 45.272C381.104 44.12 380.448 42.248 380.448 39.656V25.016H377.328V20.552H380.448V13.976H385.968V20.552H392.4V25.016H385.968Z" fill="white"/>
</svg>
