<svg width="539" height="128" viewBox="0 0 539 128" fill="none" xmlns="http://www.w3.org/2000/svg">
<rect width="231" height="61" fill="#E9280B"/>
<path d="M46.08 35.704H32.112L29.712 42.52H24L35.952 9.112H42.288L54.24 42.52H48.48L46.08 35.704ZM44.544 31.24L39.12 15.736L33.648 31.24H44.544Z" fill="white"/>
<path d="M64.9087 20.008C65.8368 18.728 67.1007 17.688 68.7007 16.888C70.3327 16.056 72.1408 15.64 74.1248 15.64C76.4608 15.64 78.5728 16.2 80.4608 17.32C82.3488 18.44 83.8368 20.04 84.9248 22.12C86.0128 24.168 86.5568 26.52 86.5568 29.176C86.5568 31.832 86.0128 34.216 84.9248 36.328C83.8368 38.408 82.3327 40.04 80.4128 41.224C78.5247 42.376 76.4288 42.952 74.1248 42.952C72.0768 42.952 70.2528 42.552 68.6528 41.752C67.0848 40.952 65.8368 39.928 64.9087 38.68V42.52H59.4367V7H64.9087V20.008ZM80.9888 29.176C80.9888 27.352 80.6048 25.784 79.8368 24.472C79.1007 23.128 78.1088 22.12 76.8608 21.448C75.6448 20.744 74.3328 20.392 72.9248 20.392C71.5488 20.392 70.2368 20.744 68.9888 21.448C67.7728 22.152 66.7808 23.176 66.0128 24.52C65.2768 25.864 64.9087 27.448 64.9087 29.272C64.9087 31.096 65.2768 32.696 66.0128 34.072C66.7808 35.416 67.7728 36.44 68.9888 37.144C70.2368 37.848 71.5488 38.2 72.9248 38.2C74.3328 38.2 75.6448 37.848 76.8608 37.144C78.1088 36.408 79.1007 35.352 79.8368 33.976C80.6048 32.6 80.9888 31 80.9888 29.176Z" fill="white"/>
<path d="M103.44 42.952C100.944 42.952 98.688 42.392 96.672 41.272C94.656 40.12 93.072 38.52 91.92 36.472C90.768 34.392 90.192 31.992 90.192 29.272C90.192 26.584 90.784 24.2 91.968 22.12C93.152 20.04 94.768 18.44 96.816 17.32C98.864 16.2 101.152 15.64 103.68 15.64C106.208 15.64 108.496 16.2 110.544 17.32C112.592 18.44 114.208 20.04 115.392 22.12C116.576 24.2 117.168 26.584 117.168 29.272C117.168 31.96 116.56 34.344 115.344 36.424C114.128 38.504 112.464 40.12 110.352 41.272C108.272 42.392 105.968 42.952 103.44 42.952ZM103.44 38.2C104.848 38.2 106.16 37.864 107.376 37.192C108.624 36.52 109.632 35.512 110.4 34.168C111.168 32.824 111.552 31.192 111.552 29.272C111.552 27.352 111.184 25.736 110.448 24.424C109.712 23.08 108.736 22.072 107.52 21.4C106.304 20.728 104.992 20.392 103.584 20.392C102.176 20.392 100.864 20.728 99.648 21.4C98.464 22.072 97.52 23.08 96.816 24.424C96.112 25.736 95.76 27.352 95.76 29.272C95.76 32.12 96.48 34.328 97.92 35.896C99.392 37.432 101.232 38.2 103.44 38.2Z" fill="white"/>
<path d="M146.529 16.072V42.52H141.057V39.4C140.193 40.488 139.057 41.352 137.649 41.992C136.273 42.6 134.801 42.904 133.233 42.904C131.153 42.904 129.281 42.472 127.617 41.608C125.985 40.744 124.689 39.464 123.729 37.768C122.801 36.072 122.337 34.024 122.337 31.624V16.072H127.761V30.808C127.761 33.176 128.353 35 129.537 36.28C130.721 37.528 132.337 38.152 134.385 38.152C136.433 38.152 138.049 37.528 139.233 36.28C140.449 35 141.057 33.176 141.057 30.808V16.072H146.529Z" fill="white"/>
<path d="M160.133 20.536V35.176C160.133 36.168 160.357 36.888 160.805 37.336C161.285 37.752 162.085 37.96 163.205 37.96H166.565V42.52H162.245C159.781 42.52 157.893 41.944 156.581 40.792C155.269 39.64 154.613 37.768 154.613 35.176V20.536H151.493V16.072H154.613V9.496H160.133V16.072H166.565V20.536H160.133Z" fill="white"/>
<path d="M49.008 91.096C48.24 89.688 47.184 88.616 45.84 87.88C44.496 87.144 42.928 86.776 41.136 86.776C39.152 86.776 37.392 87.224 35.856 88.12C34.32 89.016 33.12 90.296 32.256 91.96C31.392 93.624 30.96 95.544 30.96 97.72C30.96 99.96 31.392 101.912 32.256 103.576C33.152 105.24 34.384 106.52 35.952 107.416C37.52 108.312 39.344 108.76 41.424 108.76C43.984 108.76 46.08 108.088 47.712 106.744C49.344 105.368 50.416 103.464 50.928 101.032H39.408V95.896H57.552V101.752C57.104 104.088 56.144 106.248 54.672 108.232C53.2 110.216 51.296 111.816 48.96 113.032C46.656 114.216 44.064 114.808 41.184 114.808C37.952 114.808 35.024 114.088 32.4 112.648C29.808 111.176 27.76 109.144 26.256 106.552C24.784 103.96 24.048 101.016 24.048 97.72C24.048 94.424 24.784 91.48 26.256 88.888C27.76 86.264 29.808 84.232 32.4 82.792C35.024 81.32 37.936 80.584 41.136 80.584C44.912 80.584 48.192 81.512 50.976 83.368C53.76 85.192 55.68 87.768 56.736 91.096H49.008Z" fill="white"/>
<path d="M69.2438 92.056C70.1077 90.648 71.2278 89.544 72.6038 88.744C74.0118 87.944 75.6118 87.544 77.4038 87.544V94.6H75.6278C73.5158 94.6 71.9158 95.096 70.8278 96.088C69.7718 97.08 69.2438 98.808 69.2438 101.272V114.52H62.5238V87.928H69.2438V92.056Z" fill="white"/>
<path d="M80.202 101.128C80.202 98.44 80.73 96.056 81.786 93.976C82.874 91.896 84.33 90.296 86.154 89.176C88.01 88.056 90.074 87.496 92.346 87.496C94.33 87.496 96.058 87.896 97.53 88.696C99.034 89.496 100.234 90.504 101.13 91.72V87.928H107.898V114.52H101.13V110.632C100.266 111.88 99.066 112.92 97.53 113.752C96.026 114.552 94.282 114.952 92.298 114.952C90.058 114.952 88.01 114.376 86.154 113.224C84.33 112.072 82.874 110.456 81.786 108.376C80.73 106.264 80.202 103.848 80.202 101.128ZM101.13 101.224C101.13 99.592 100.81 98.2 100.17 97.048C99.53 95.864 98.666 94.968 97.578 94.36C96.49 93.72 95.322 93.4 94.074 93.4C92.826 93.4 91.674 93.704 90.618 94.312C89.562 94.92 88.698 95.816 88.026 97C87.386 98.152 87.066 99.528 87.066 101.128C87.066 102.728 87.386 104.136 88.026 105.352C88.698 106.536 89.562 107.448 90.618 108.088C91.706 108.728 92.858 109.048 94.074 109.048C95.322 109.048 96.49 108.744 97.578 108.136C98.666 107.496 99.53 106.6 100.17 105.448C100.81 104.264 101.13 102.856 101.13 101.224Z" fill="white"/>
<path d="M121.181 91.768C122.045 90.552 123.229 89.544 124.733 88.744C126.269 87.912 128.013 87.496 129.965 87.496C132.237 87.496 134.285 88.056 136.109 89.176C137.965 90.296 139.421 91.896 140.477 93.976C141.565 96.024 142.109 98.408 142.109 101.128C142.109 103.848 141.565 106.264 140.477 108.376C139.421 110.456 137.965 112.072 136.109 113.224C134.285 114.376 132.237 114.952 129.965 114.952C128.013 114.952 126.285 114.552 124.781 113.752C123.309 112.952 122.109 111.944 121.181 110.728V127.192H114.461V87.928H121.181V91.768ZM135.245 101.128C135.245 99.528 134.909 98.152 134.237 97C133.597 95.816 132.733 94.92 131.645 94.312C130.589 93.704 129.437 93.4 128.189 93.4C126.973 93.4 125.821 93.72 124.733 94.36C123.677 94.968 122.813 95.864 122.141 97.048C121.501 98.232 121.181 99.624 121.181 101.224C121.181 102.824 121.501 104.216 122.141 105.4C122.813 106.584 123.677 107.496 124.733 108.136C125.821 108.744 126.973 109.048 128.189 109.048C129.437 109.048 130.589 108.728 131.645 108.088C132.733 107.448 133.597 106.536 134.237 105.352C134.909 104.168 135.245 102.76 135.245 101.128Z" fill="white"/>
<path d="M161.968 87.544C163.984 87.544 165.777 87.992 167.344 88.888C168.913 89.752 170.128 91.048 170.992 92.776C171.888 94.472 172.337 96.52 172.337 98.92V114.52H165.617V99.832C165.617 97.72 165.089 96.104 164.033 94.984C162.977 93.832 161.536 93.256 159.712 93.256C157.856 93.256 156.384 93.832 155.296 94.984C154.24 96.104 153.712 97.72 153.712 99.832V114.52H146.992V79H153.712V91.24C154.576 90.088 155.729 89.192 157.169 88.552C158.609 87.88 160.208 87.544 161.968 87.544Z" fill="white"/>
<path d="M182.135 84.76C180.951 84.76 179.959 84.392 179.159 83.656C178.391 82.888 178.007 81.944 178.007 80.824C178.007 79.704 178.391 78.776 179.159 78.04C179.959 77.272 180.951 76.888 182.135 76.888C183.319 76.888 184.295 77.272 185.063 78.04C185.863 78.776 186.263 79.704 186.263 80.824C186.263 81.944 185.863 82.888 185.063 83.656C184.295 84.392 183.319 84.76 182.135 84.76ZM185.447 87.928V114.52H178.727V87.928H185.447Z" fill="white"/>
<path d="M190.358 101.224C190.358 98.472 190.918 96.072 192.038 94.024C193.158 91.944 194.71 90.344 196.694 89.224C198.678 88.072 200.95 87.496 203.51 87.496C206.806 87.496 209.526 88.328 211.67 89.992C213.846 91.624 215.302 93.928 216.038 96.904H208.79C208.406 95.752 207.75 94.856 206.822 94.216C205.926 93.544 204.806 93.208 203.462 93.208C201.542 93.208 200.022 93.912 198.902 95.32C197.782 96.696 197.222 98.664 197.222 101.224C197.222 103.752 197.782 105.72 198.902 107.128C200.022 108.504 201.542 109.192 203.462 109.192C206.182 109.192 207.958 107.976 208.79 105.544H216.038C215.302 108.424 213.846 110.712 211.67 112.408C209.494 114.104 206.774 114.952 203.51 114.952C200.95 114.952 198.678 114.392 196.694 113.272C194.71 112.12 193.158 110.52 192.038 108.472C190.918 106.392 190.358 103.976 190.358 101.224Z" fill="white"/>
<path d="M227.681 86.44V94.84H238.961V100.168H227.681V109.048H240.401V114.52H220.961V80.968H240.401V86.44H227.681Z" fill="white"/>
<path d="M253.228 92.056C254.092 90.648 255.212 89.544 256.588 88.744C257.996 87.944 259.596 87.544 261.388 87.544V94.6H259.612C257.5 94.6 255.9 95.096 254.812 96.088C253.756 97.08 253.228 98.808 253.228 101.272V114.52H246.508V87.928H253.228V92.056Z" fill="white"/>
<path d="M264.186 101.128C264.186 98.44 264.714 96.056 265.77 93.976C266.858 91.896 268.314 90.296 270.138 89.176C271.994 88.056 274.058 87.496 276.33 87.496C278.314 87.496 280.042 87.896 281.514 88.696C283.018 89.496 284.218 90.504 285.114 91.72V87.928H291.882V114.52H285.114V110.632C284.25 111.88 283.05 112.92 281.514 113.752C280.01 114.552 278.266 114.952 276.282 114.952C274.042 114.952 271.994 114.376 270.138 113.224C268.314 112.072 266.858 110.456 265.77 108.376C264.714 106.264 264.186 103.848 264.186 101.128ZM285.114 101.224C285.114 99.592 284.794 98.2 284.154 97.048C283.514 95.864 282.65 94.968 281.562 94.36C280.474 93.72 279.306 93.4 278.058 93.4C276.81 93.4 275.658 93.704 274.602 94.312C273.546 94.92 272.682 95.816 272.01 97C271.37 98.152 271.05 99.528 271.05 101.128C271.05 102.728 271.37 104.136 272.01 105.352C272.682 106.536 273.546 107.448 274.602 108.088C275.69 108.728 276.842 109.048 278.058 109.048C279.306 109.048 280.474 108.744 281.562 108.136C282.65 107.496 283.514 106.6 284.154 105.448C284.794 104.264 285.114 102.856 285.114 101.224Z" fill="white"/>
<path d="M305.07 81.016V101.752C305.07 104.024 305.662 105.768 306.846 106.984C308.03 108.168 309.694 108.76 311.838 108.76C314.014 108.76 315.694 108.168 316.878 106.984C318.062 105.768 318.654 104.024 318.654 101.752V81.016H325.422V101.704C325.422 104.552 324.798 106.968 323.55 108.952C322.334 110.904 320.686 112.376 318.606 113.368C316.558 114.36 314.27 114.856 311.742 114.856C309.246 114.856 306.974 114.36 304.926 113.368C302.91 112.376 301.31 110.904 300.126 108.952C298.942 106.968 298.35 104.552 298.35 101.704V81.016H305.07Z" fill="white"/>
<path d="M346.65 87.544C349.818 87.544 352.378 88.552 354.33 90.568C356.282 92.552 357.258 95.336 357.258 98.92V114.52H350.538V99.832C350.538 97.72 350.01 96.104 348.954 94.984C347.898 93.832 346.458 93.256 344.634 93.256C342.778 93.256 341.306 93.832 340.218 94.984C339.162 96.104 338.634 97.72 338.634 99.832V114.52H331.914V87.928H338.634V91.24C339.53 90.088 340.666 89.192 342.042 88.552C343.45 87.88 344.986 87.544 346.65 87.544Z" fill="white"/>
<path d="M367.057 84.76C365.873 84.76 364.881 84.392 364.081 83.656C363.313 82.888 362.929 81.944 362.929 80.824C362.929 79.704 363.313 78.776 364.081 78.04C364.881 77.272 365.873 76.888 367.057 76.888C368.241 76.888 369.217 77.272 369.985 78.04C370.785 78.776 371.185 79.704 371.185 80.824C371.185 81.944 370.785 82.888 369.985 83.656C369.217 84.392 368.241 84.76 367.057 84.76ZM370.369 87.928V114.52H363.649V87.928H370.369Z" fill="white"/>
<path d="M388.096 108.328L394.816 87.928H401.968L392.128 114.52H383.968L374.176 87.928H381.376L388.096 108.328Z" fill="white"/>
<path d="M430.463 100.648C430.463 101.608 430.398 102.472 430.271 103.24H410.831C410.991 105.16 411.663 106.664 412.847 107.752C414.031 108.84 415.487 109.384 417.215 109.384C419.711 109.384 421.487 108.312 422.543 106.168H429.791C429.023 108.728 427.551 110.84 425.375 112.504C423.199 114.136 420.527 114.952 417.359 114.952C414.799 114.952 412.495 114.392 410.447 113.272C408.431 112.12 406.847 110.504 405.695 108.424C404.575 106.344 404.015 103.944 404.015 101.224C404.015 98.472 404.575 96.056 405.695 93.976C406.815 91.896 408.383 90.296 410.398 89.176C412.414 88.056 414.735 87.496 417.359 87.496C419.887 87.496 422.143 88.04 424.127 89.128C426.143 90.216 427.694 91.768 428.783 93.784C429.902 95.768 430.463 98.056 430.463 100.648ZM423.503 98.728C423.47 97 422.847 95.624 421.631 94.6C420.415 93.544 418.927 93.016 417.167 93.016C415.503 93.016 414.095 93.528 412.943 94.552C411.823 95.544 411.135 96.936 410.879 98.728H423.503Z" fill="white"/>
<path d="M442.088 92.056C442.952 90.648 444.072 89.544 445.448 88.744C446.855 87.944 448.456 87.544 450.247 87.544V94.6H448.472C446.36 94.6 444.76 95.096 443.672 96.088C442.616 97.08 442.088 98.808 442.088 101.272V114.52H435.368V87.928H442.088V92.056Z" fill="white"/>
<path d="M464.95 114.952C462.774 114.952 460.822 114.568 459.094 113.8C457.366 113 455.99 111.928 454.966 110.584C453.974 109.24 453.43 107.752 453.334 106.12H460.102C460.23 107.144 460.726 107.992 461.59 108.664C462.486 109.336 463.59 109.672 464.902 109.672C466.182 109.672 467.174 109.416 467.878 108.904C468.614 108.392 468.982 107.736 468.982 106.936C468.982 106.072 468.534 105.432 467.638 105.016C466.774 104.568 465.382 104.088 463.462 103.576C461.478 103.096 459.846 102.6 458.566 102.088C457.318 101.576 456.23 100.792 455.302 99.736C454.406 98.68 453.958 97.256 453.958 95.464C453.958 93.992 454.374 92.648 455.206 91.432C456.07 90.216 457.286 89.256 458.854 88.552C460.454 87.848 462.326 87.496 464.47 87.496C467.638 87.496 470.166 88.296 472.054 89.896C473.942 91.464 474.982 93.592 475.174 96.28H468.742C468.646 95.224 468.198 94.392 467.398 93.784C466.63 93.144 465.59 92.824 464.278 92.824C463.062 92.824 462.118 93.048 461.446 93.496C460.806 93.944 460.486 94.568 460.486 95.368C460.486 96.264 460.934 96.952 461.83 97.432C462.726 97.88 464.118 98.344 466.006 98.824C467.926 99.304 469.51 99.8 470.758 100.312C472.006 100.824 473.078 101.624 473.974 102.712C474.902 103.768 475.382 105.176 475.414 106.936C475.414 108.472 474.982 109.848 474.118 111.064C473.286 112.28 472.07 113.24 470.47 113.944C468.902 114.616 467.062 114.952 464.95 114.952Z" fill="white"/>
<path d="M484.338 84.76C483.154 84.76 482.162 84.392 481.362 83.656C480.594 82.888 480.21 81.944 480.21 80.824C480.21 79.704 480.594 78.776 481.362 78.04C482.162 77.272 483.154 76.888 484.338 76.888C485.522 76.888 486.498 77.272 487.266 78.04C488.066 78.776 488.466 79.704 488.466 80.824C488.466 81.944 488.066 82.888 487.266 83.656C486.498 84.392 485.522 84.76 484.338 84.76ZM487.65 87.928V114.52H480.93V87.928H487.65Z" fill="white"/>
<path d="M502.113 93.448V106.312C502.113 107.208 502.321 107.864 502.737 108.28C503.185 108.664 503.921 108.856 504.945 108.856H508.065V114.52H503.841C498.177 114.52 495.345 111.768 495.345 106.264V93.448H492.177V87.928H495.345V81.352H502.113V87.928H508.065V93.448H502.113Z" fill="white"/>
<path d="M538.339 87.928L521.875 127.096H514.723L520.483 113.848L509.827 87.928H517.363L524.227 106.504L531.187 87.928H538.339Z" fill="white"/>
</svg>
