<svg width="830" height="1263" viewBox="0 0 830 1263" fill="none" xmlns="http://www.w3.org/2000/svg">
<g opacity="0.35">
<path d="M532.961 242.371C562.216 251.627 585.155 230.774 613.307 225.561C661.27 216.177 692.55 266.225 689.422 308.974C685.251 366.321 639.374 411.156 588.283 430.967C657.099 415.327 699.849 357.98 735.3 298.548C741.556 288.121 755.11 289.164 761.366 300.633C792.647 362.151 759.281 432.01 717.576 478.588C705.521 492.795 697.537 499.873 687.972 504.443C659.967 517.834 617.738 508.646 587.24 516.466C579.942 518.551 569.515 519.594 569.515 526.893C568.472 539.405 564.133 547.692 557.533 554.515C550.747 565.471 554.918 582.154 567.43 585.282C689.422 617.605 798.903 697.891 815.938 827.069C821.089 842.766 824.738 858.917 826.838 875.303C830.933 907.968 828.514 942.293 817.671 978.369C802.031 1032.59 773.878 1080.55 761.431 1134.95C758.756 1147.93 757.196 1162.92 755.11 1178.56C751.982 1194.2 745.726 1208.8 739.47 1223.4C722.092 1209.49 702.282 1200.81 681.292 1194.7C670.798 1191.65 660.025 1189.29 649.307 1186.55C626.217 1161.79 602.849 1133.9 593.049 1101.27C589.663 1090.17 588.055 1078.6 588.283 1067C634.16 1027.37 683.166 985.668 698.806 922.065C715.489 857.419 694.635 782.347 635.203 750.024C669.611 778.176 692.55 819.883 694.635 863.675C698.806 958.558 621.648 1034.67 534.804 1058.17C522.472 1062.56 513.886 1066.72 508.29 1071.02C481.409 1097.17 454.821 1122 432.925 1155.62C418.328 1179.6 412.072 1204.63 396.092 1226.65C387.072 1239.84 375.909 1251.43 363.066 1260.93C363.547 1257.44 363.129 1253.89 361.852 1250.6C360.575 1247.32 358.48 1244.41 355.767 1242.17C346.575 1233.76 336.885 1225.91 326.75 1218.67C279.652 1186.9 246.287 1125.39 276.524 1070.12C295.292 1034.67 332.828 1058.65 362.023 1057.61C372.45 1057.61 393.303 1048.23 383.919 1039.89C371.407 1028.94 355.507 1017.47 343.776 1004.05C337.911 997.333 333.54 989.987 334.209 980.642C335.956 972.113 339.084 965.857 345.975 961.777C404.773 990.881 503.827 1005.48 538.235 936.662C541.363 929.364 534.064 919.98 526.765 918.937C396.431 898.084 311.975 774.006 340.342 647.91C329.221 640.377 316.761 635.045 303.634 632.202C291.122 629.074 260.884 628.032 267.14 621.776C284.866 601.444 309.629 598.055 336.087 600.792C349.316 602.16 362.186 605.73 374.26 609.863C371.407 631.16 365.151 652.013 370.365 672.867C387.047 636.373 413.114 603.008 422.628 563.907C411.55 550.613 395.91 539.926 381.834 532.106C330.743 503.954 270.268 503.954 218.135 525.85C242.116 519.594 267.14 514.381 293.207 515.423C328.397 517.769 363.587 526.567 393.499 544.895C403.585 551.05 412.961 558.3 421.455 566.514C414.157 596.752 397.474 625.946 375.578 647.842C370.365 639.501 374.535 632.202 375.617 624.062C379.263 607.172 368.801 601.444 356.81 599.88C368.279 600.922 378.711 608.832 375.268 625.835C373.493 632.202 372.45 637.416 374.535 643.672C391.218 620.733 421.455 591.538 412.984 561.952C401.645 549.571 384.962 538.883 371.407 532.106C346.383 520.637 320.316 517.509 293.207 519.594C279.995 521.161 266.873 523.412 253.895 526.339C240.976 529.239 228.235 532.758 215.658 536.798C177.47 534.191 116.995 491.442 96.142 545.661C93.014 552.959 80.502 548.789 74.2459 543.575C59.6485 532.106 56.5205 513.338 57.5632 496.655C58.6059 487.271 62.7766 477.887 62.7766 468.503C62.7766 466.418 65.9046 464.332 65.9046 463.29C53.3925 443.479 18.9844 455.991 3.34432 440.351C-2.91168 434.095 9.60032 425.754 16.8991 420.54C33.5818 411.156 50.2645 405.943 68.7617 404.664C96.701 401.756 121.166 401.251 138.892 400.729C139.934 400.729 143.062 397.601 143.062 396.559C139.934 331.913 161.83 270.396 195.196 214.091C221.263 169.256 302.591 137.976 282.78 84.8C278.61 73.3306 259.841 72.2879 247.329 66.0319C242.116 62.9039 238.988 56.6479 245.161 53.376C255.829 44.9148 267.401 35.5338 278.87 27.7137C290.409 19.7161 304.197 15.6069 318.231 15.9837C343.255 15.9837 362.023 34.7518 374.535 55.6052C381.069 66.7577 386.844 78.3375 391.822 90.2661C353.682 205.75 407.901 344.425 539.277 370.492C543.448 370.492 545.533 376.748 542.405 379.876C521.552 397.601 492.357 394.473 467.333 387.175C448.665 382.478 430.899 374.736 414.75 364.26C398.57 353.775 384.137 340.814 371.979 325.851C355.767 304.804 338.042 270.395 305.719 282.908C320.49 287.025 334.568 293.31 347.493 301.559C354.745 315.233 363.226 326.307 372.353 336.867C419.312 384.162 482.452 418.629 552.832 403.857C587.24 396.559 616.435 378.833 633.118 347.553C644.587 326.7 645.63 293.334 620.606 284.993C597.667 277.694 571.6 284.993 553.168 267.402C539.313 253.492 532.961 242.371 532.961 242.371Z" stroke="white" stroke-width="1.71011" stroke-miterlimit="10"/>
<path d="M557.123 247.307C578.899 255.798 601.838 244.329 623.734 246.414C657.099 248.5 672.739 286.036 668.569 316.273C656.057 397.602 568.472 434.095 491.315 418.455C447.522 409.853 414.287 385.415 382.111 359.984C371.447 351.335 360.901 342.575 350.182 334.083C294.25 304.804 227.519 320.444 187.897 369.45C210.836 312.103 269.226 262.055 333.871 282.908C346.383 287.079 352.639 299.591 359.667 310.765C371.708 325.6 385.434 338.983 400.568 350.645C415.704 362.312 432.613 371.478 450.65 377.791C464.205 383.004 478.803 385.09 493.4 381.962C502.784 379.876 503.827 369.45 496.528 366.322C408.944 320.444 356.81 224.518 380.516 128.902C385.651 95.0342 380.27 80.369 372.711 69.1603C357.592 46.7429 336.999 32.6668 305.719 44.1362C291.122 49.3495 285.262 67.4679 271.017 72.1032C242.116 76.459 193.111 81.6724 185.812 53.5203C179.556 30.5815 221.263 25.3682 242.898 15.4628C253.301 11.006 264.147 7.66379 275.254 5.49218C285.988 3.32165 296.868 1.94938 307.805 1.38666C341.17 -0.69868 370.365 19.1121 386.005 48.3069C390.697 58.0385 394.991 68.4226 399.079 79.3483C375.578 158.83 375.578 254.756 445.437 314.188C468.376 333.999 497.571 348.596 527.808 342.34C543.448 338.169 577.856 342.34 567.43 320.444C548.662 279.78 512.168 248.5 513.211 201.58C516.536 214.603 522.717 226.723 531.306 237.062C543.147 244.843 557.123 247.307 557.123 247.307Z" stroke="#ED1C24" stroke-width="1.71011" stroke-miterlimit="10"/>
<path d="M681.05 351.064C621.648 453.906 472.546 451.82 390.497 379.332C374.709 367.381 362.924 361.394 351.153 355.468C290.079 323.572 230.647 356.937 191.025 411.156C182.684 421.583 168.086 393.431 167.044 383.004C159.745 287.078 251.5 232.86 332.828 204.707C351.597 198.451 344.298 171.342 338.042 155.702C330.743 137.976 310.932 130.678 292.164 133.806C279.652 135.891 269.225 142.147 259.841 149.446C272.353 124.422 277.567 93.1416 301.481 75.8065C309.042 68.6388 318.231 62.3828 331.786 59.7761C354.073 55.4751 367.562 65.5434 376.928 82.0632C381.611 90.3231 384.671 101.212 379.589 128.149C360.981 210.963 386.005 299.59 455.864 354.852C456.906 356.937 458.992 362.151 457.949 362.151C427.711 370.492 403.73 343.383 381.313 326.732C370.819 314.904 360.952 303.453 352.576 290.459C346.383 280.822 341.17 269.353 329.7 267.268C251.5 249.542 194.153 313.145 181.641 384.047C223.348 340.255 290.079 318.359 346.585 347.135C354.184 347.655 363.447 351.24 377.443 362.695C447.522 427.839 563.259 455.991 641.459 387.175C670.654 360.065 688.379 322.529 681.081 281.865C673.782 237.03 627.904 214.091 587.24 228.689C604.966 216.177 629.99 210.963 649.8 220.347C676.91 232.86 691.507 262.054 694.714 291.129C692.554 311.579 687.967 331.699 681.05 351.064Z" stroke="white" stroke-width="1.71011" stroke-miterlimit="10"/>
<path d="M568.419 435.103C495.485 445.564 430.839 413.242 369.322 371.535C364.406 368.597 358.721 367.204 353.004 367.535C346.383 369.449 340.127 369.449 334.913 367.364C271.31 349.639 231.689 400.73 194.153 442.436C191.025 445.564 186.854 443.479 183.726 441.394C168.086 430.967 158.702 415.327 147.233 400.73C112.824 357.98 154.531 302.718 169.129 256.841C181.641 219.305 211.878 188.025 252.542 178.641C259.841 176.555 267.14 183.854 260.884 189.067C206.665 240.158 158.702 304.804 163.915 379.876C164.958 394.473 177.47 432.01 193.11 417.412C226.476 384.047 261.926 328.785 315.843 348.892C329.926 353.685 345.765 357.985 364.25 356.982C428.754 421.583 533.021 457.034 618.818 413.528L568.419 435.103Z" stroke="#ED1C24" stroke-width="1.71011" stroke-miterlimit="10"/>
<path d="M738.296 293.462C716.531 357.98 675.867 423.668 610.179 448.693C542.405 474.759 466.29 455.991 404.292 419.215C389.505 419.126 374.705 419.078 359.957 419.422C337.835 419.938 315.829 421.336 295.988 423.09C256.713 419.498 224.391 443.479 193.111 466.418C183.727 473.717 167.472 473.078 157.141 463.555C113.868 428.882 56.5206 430.967 5.42969 442.437C11.6857 401.772 65.9046 391.346 99.9164 396.294C122.73 394.474 139.152 404.9 153.489 418.976C167.826 433.052 180.077 450.778 194.153 463.29C229.604 427.839 261.927 371.535 320.528 378.327C328.892 378.733 339.084 376.922 349.511 374.663C360.981 372.578 372.45 374.663 380.791 381.962C493.4 476.845 672.739 446.607 728.543 309.325C734.521 298.765 738.296 293.462 738.296 293.462Z" stroke="white" stroke-width="1.71011" stroke-miterlimit="10"/>
<path d="M694.345 503.822C681.978 503.888 669.8 504.703 657.585 505.11C645.37 505.518 635.88 505.184 630.749 503.067C576.814 497.698 522.595 490.399 470.243 476.466C453.168 473.057 436.281 469.904 419.501 467.33C385.94 462.182 352.542 459.217 319.584 460.993C302.785 461.864 286.082 464.069 269.633 467.589C256.467 467.508 243.358 469.311 230.703 472.944C218.112 476.553 206.15 482.072 195.233 489.307C148.276 482.058 85.7158 502.911 99.2705 561.301C82.5878 558.173 75.2891 540.447 71.1184 524.807C67.9904 512.295 74.2464 501.869 83.6304 493.527C108.655 473.716 138.892 479.972 168.594 478.452C186.355 477.636 199.816 469.712 212.815 461.294C238.812 444.457 266.788 432.402 298.758 433.838C320.291 431.311 342.008 430.724 363.647 432.085C378.144 432.897 392.685 434.388 407.25 436.311C520.51 487.271 666.484 495.613 759.281 393.431C761.367 391.345 768.665 389.26 768.665 390.303C765.537 419.498 744.684 444.522 727.066 467.752C707.256 492.687 694.345 503.822 694.345 503.822Z" stroke="#ED1C24" stroke-width="1.71011" stroke-miterlimit="10"/>
<path d="M553.567 569.339C556.33 569.615 554.197 571.273 548.66 574.248C540.708 571.534 536.892 566.951 536.042 561.121C535.192 555.29 537.391 548.311 539.147 541.621C525.975 535.072 512.184 529.849 497.978 526.03C483.574 522.214 468.65 520.745 453.779 521.68C445.437 522.722 441.267 531.064 444.395 538.362C439.181 538.362 435.011 537.32 429.797 536.277C430.84 539.405 430.84 543.576 432.925 545.661C446.48 559.216 426.81 590.207 422.068 587.347C426.669 580.069 435.01 575.898 439.181 567.557C408.944 594.667 393.304 631.16 369.322 663.483C364.109 648.885 371.407 632.203 373.493 617.605C371.407 632.203 363.066 649.928 370.365 664.526C389.133 639.501 400.602 610.307 419.599 584.987C427.712 566.539 421.13 557.273 413.212 549.506C387.895 527.023 350.554 518.03 316.146 510.21C280.174 502.39 245.375 509.819 214.828 525.899C204.156 529.686 191.849 528.284 179.433 525.917C194.939 530.607 211.381 531.296 227.226 527.919C269.943 514.381 315.885 511.253 358.895 526.893C375.578 533.149 396.692 544.097 411.681 557.652C419.175 564.429 421.564 573.932 411.972 590.398C402.381 606.864 391.514 625.058 381.369 641.825C369.343 667.495 367.936 654.833 372.8 630.615C377.664 606.397 359.938 598.837 345.341 598.837C357.853 598.316 379.228 604.833 376.481 624.756C373.735 644.68 377.323 648.743 397.342 605.86C412.708 574.663 405.438 560.741 395.915 549.793C361.465 515.005 301.967 513.257 246.564 527.027C232.713 530.469 218.779 533.745 205.328 536.898C185.812 527.936 161.831 528.978 143.062 516.466C155.575 510.21 166.001 520.637 178.513 518.551C171.215 513.338 157.66 512.296 157.66 503.954C156.617 493.527 172.257 490.399 182.185 488.406C196.75 485.237 208.867 478.03 218.2 477.301C234.006 476.174 249.859 475.88 265.696 476.421C282.758 477.04 299.94 478.799 317.1 480.754C338.495 482.691 353.778 483.091 369.11 483.557C384.05 483.948 399.038 484.404 414.157 485.186C450.65 486.229 484.016 496.655 520.509 503.954C551.79 511.253 580.984 513.338 611.222 513.338C595.582 514.381 574.728 511.253 568.472 525.85C561.174 540.448 565.99 549.26 557.22 557.514C554.006 564.762 553.567 569.339 553.567 569.339Z" stroke="white" stroke-width="1.71011" stroke-miterlimit="10"/>
<path d="M719.502 658.022C737.385 678.081 755.11 697.891 764.494 722.915C766.58 729.171 759.281 731.257 755.11 728.129C674.825 671.825 599.752 626.99 514.253 586.326C505.912 583.198 509.04 565.472 500.699 562.344C469.418 546.704 444.394 591.539 417.285 604.051C403.73 610.307 394.346 623.862 390.175 636.374C374.535 675.995 371.407 717.702 383.919 758.366C398.517 808.415 439.181 845.951 491.315 854.292C530.936 861.591 552.832 827.183 577.856 803.201C594.539 786.519 619.563 797.988 633.118 814.671C658.142 844.908 655.014 885.572 640.417 917.895C611.222 980.455 528.851 1025.29 461.077 999.223C464.331 997.074 467.832 995.324 471.504 994.01C504.869 989.839 544.491 975.242 550.747 938.749C552.832 928.322 543.448 921.023 535.107 919.98C407.901 906.426 320.316 790.689 334.563 667.844C333.247 643.952 320.838 637.938 306.762 635.331C324.226 633.767 338.696 637.964 339.74 662.832C333.871 752.11 371.407 860.548 469.418 880.359C467.333 877.231 466.29 873.06 463.162 869.932C395.389 817.799 357.853 735.428 386.005 653.057C399.559 612.392 429.797 584.24 462.12 558.173C479.845 545.661 505.912 544.619 520.509 561.301C529.893 572.771 535.107 587.368 548.661 594.667C579.942 611.35 617.478 625.947 648.758 628.032C642.502 616.563 626.862 617.606 619.563 607.179C638.331 613.435 656.057 623.862 674.41 630.186C698.963 644.258 719.502 658.022 719.502 658.022Z" stroke="white" stroke-width="1.71011" stroke-miterlimit="10"/>
<path d="M813.296 995.518C782.22 1039.89 729.044 1086.81 671.697 1069.08C657.621 1064.39 649.279 1053.7 662.113 1032.6C704.02 977.327 735.3 911.639 723.83 838.652C709.233 748.982 628.947 703.104 545.534 689.55C530.936 687.464 518.424 674.952 520.509 660.355C524.68 628.032 505.912 586.325 468.376 594.666C391.218 610.307 371.407 709.36 403.73 771.921C422.498 809.457 473.589 842.822 509.04 813.627C549.704 781.305 599.752 738.555 646.673 784.433C696.721 832.395 693.593 913.724 651.886 966.9C616.435 1010.69 567.43 1039.89 512.228 1046.43C476.814 1050.87 460.031 1056.25 445.437 1060.87C405.294 1075.34 361.502 1075.86 324.487 1054.48C345.341 1054.48 369.322 1068.04 387.048 1049.27C383.92 1046.14 378.706 1045.1 375.578 1043.02C387.636 1044.3 399.796 1044.33 411.86 1043.1C424.538 1042.14 437.003 1039.96 462.181 1041.02C512.168 1043.02 560.131 1032.59 603.923 1004.44C644.587 977.327 671.697 937.705 677.953 889.742C684.209 841.78 663.355 786.518 613.307 770.878C569.515 756.281 543.448 796.945 518.424 824.054C503.827 838.652 481.931 839.694 463.163 834.481C418.328 820.926 393.304 778.177 386.005 732.299C376.621 672.867 401.645 607.179 453.779 587.368C489.229 573.813 543.448 605.093 544.491 649.928C545.534 659.312 554.918 667.654 564.302 669.739C698.806 698.934 775.964 832.396 731.331 958.35C720.555 991.304 723.048 1001.57 736.864 997.398C750.679 993.228 763.973 984.626 774.921 976.284C802.031 953.345 818.713 923.108 824.969 889.742C824.969 907.468 823.927 926.236 822.988 943.756C819.184 970.585 813.296 995.518 813.296 995.518Z" stroke="white" stroke-width="1.71011" stroke-miterlimit="10"/>
<path d="M753.045 1193.52C736.878 1190.3 720.778 1187.3 704.696 1184.34C654.197 1186.05 614.193 1151.4 598.078 1106.18C593.876 1094.74 591.784 1082.63 591.904 1070.44C594.539 1061.78 599.752 1055.53 607.051 1050.31C696.721 990.882 745.726 872.018 675.867 780.262C637.288 730.214 563.259 715.617 517.381 760.452C516.339 760.452 520.509 762.537 521.552 762.537C548.661 757.324 571.6 742.726 600.795 748.982C652.928 760.452 686.294 806.329 691.507 856.378C701.934 964.815 608.094 1037.8 515.252 1065.78C506.519 1071.14 500.273 1076.28 493.371 1081.24C481.285 1091.42 468.393 1100.61 454.821 1108.7C419.37 1129.56 409.986 1168.14 391.341 1201.7C384.203 1219.23 375.057 1235.39 360.981 1248.42C351.597 1231.74 327.614 1228.59 321.695 1212.69C311.975 1178.56 335.956 1147.28 364.109 1130.6C397.474 1110.27 433.186 1094.63 465.899 1075.47C477.63 1069.19 489.027 1062.51 512.111 1056.63C603.923 1039.89 693.593 965.858 688.379 865.762C686.294 816.756 656.057 767.75 603.923 758.366C568.472 751.068 542.405 774.006 514.253 793.817C476.717 820.927 432.925 786.519 420.413 750.025C415.199 734.385 413.114 716.66 419.37 701.019C425.626 687.465 433.968 669.739 449.608 666.611C453.778 694.763 469.418 730.214 501.741 723.958C590.368 708.318 688.379 735.428 708.19 833.439C725.916 914.767 688.379 992.967 627.171 1041.19C602.359 1062.31 602.359 1077.68 606.269 1091.76C610.185 1106.43 618.903 1119.37 631.032 1128.51C671.697 1158.75 718.617 1142.07 761.366 1130.6C758.253 1140.69 756.272 1151.09 755.458 1161.61C755.402 1172.29 754.595 1182.95 753.045 1193.52Z" stroke="#ED1C24" stroke-width="1.71011" stroke-miterlimit="10"/>
<path d="M767.563 1105.61C730.086 1125.39 684.208 1137.9 643.544 1122.26C628.947 1116.52 620.084 1105.05 615.653 1091.5C611.221 1077.94 611.221 1062.3 629.389 1043.84C695.678 992.967 734.256 903.297 708.19 819.883C682.123 733.342 589.325 713.531 509.04 719.787C470.461 722.915 481.93 674.952 479.845 646.8C477.759 628.032 449.607 637.416 437.095 643.672C403.73 658.269 398.516 703.104 404.772 737.512C411.028 772.963 436.053 804.243 472.546 813.627C491.314 817.798 510.082 812.585 521.552 797.987C553.874 757.323 610.179 742.726 648.757 778.177C681.08 807.371 693.592 850.121 687.336 892.87C673.782 984.625 589.325 1043.01 504.134 1054.59C490.067 1057.61 480.788 1060.78 473.569 1064.15C461.25 1071.08 448.348 1076.92 435.01 1081.59C381.834 1100.36 324.487 1112.87 289.036 1162.92C286.951 1166.05 281.737 1166.05 278.609 1163.96C268.182 1156.67 266.097 1143.11 270.268 1131.64C278.609 1109.75 301.548 1097.23 322.401 1096.19C363.066 1092.54 405.033 1086.55 443.091 1072.47C455.734 1067.85 467.964 1062.17 479.652 1055.49C540.32 1050.31 599.752 1029.46 642.501 983.583C689.422 931.449 704.019 851.164 658.141 792.774C613.307 735.427 552.832 769.835 503.826 804.243C462.119 832.395 416.242 784.433 404.772 742.726C393.303 696.848 403.73 643.672 446.479 615.52C464.205 604.05 498.613 618.648 499.655 636.373C500.698 661.397 476.717 704.147 512.167 706.232C597.666 709.36 694.635 734.384 716.531 831.353C736.342 918.937 689.422 995.052 630.854 1051.27C625.239 1060.88 623.212 1069.21 625.297 1076.12C629.468 1089.94 637.809 1101.93 651.885 1108.7C694.635 1128.51 740.512 1100.36 777.75 1077.46L767.563 1105.61Z" stroke="#ED1C24" stroke-width="1.71011" stroke-miterlimit="10"/>
<path d="M785.369 1059.68C747.811 1088.89 694.635 1125.39 646.672 1095.15C641.294 1091.95 636.625 1087.69 632.95 1082.62C629.275 1077.56 626.671 1071.8 625.298 1065.69C623.864 1059.83 628.635 1051.77 638.143 1041.66C696.721 989.839 735.299 911.639 715.489 830.311C695.678 743.769 610.179 706.233 529.893 707.275C493.4 707.275 510.082 660.355 504.869 634.288C501.741 620.734 494.442 609.264 480.888 606.136C453.778 598.838 427.711 618.648 415.199 642.63C389.133 692.678 389.133 758.366 436.053 796.945C462.12 819.884 501.741 824.055 525.723 797.988C545.533 777.134 570.557 760.452 599.752 762.537C633.118 765.665 661.27 788.604 674.825 818.841C693.593 859.505 688.379 904.34 668.569 943.962C633.118 1012.78 561.173 1045.1 488.579 1054.56C466.043 1059.58 452.697 1065.84 439.799 1071.28C388.206 1093.06 330.743 1098.62 280.695 1072.21C275.481 1070.12 285.908 1057.61 290.079 1049.27C337.868 1081.42 397.966 1075.19 450.462 1054.12C461.997 1050.2 483.451 1048.71 510.256 1046.6C579.941 1037.8 645.63 994.01 673.782 928.322C688.379 891.828 690.465 849.079 670.654 812.585C648.758 770.878 591.411 744.812 550.747 778.177C528.851 796.945 511.125 824.055 479.845 820.927C453.778 817.799 430.84 807.372 415.199 785.476C380.791 737.513 384.962 674.953 420.413 626.99C437.096 604.051 466.29 585.283 494.442 597.795C513.211 607.179 521.552 630.118 517.381 649.928C514.253 661.398 507.997 671.825 510.083 683.294C512.168 695.806 527.808 697.891 538.235 697.891C603.923 703.105 672.739 725.001 705.062 787.561C745.726 864.719 722.787 959.602 666.572 1021.28C637.288 1048.23 643.544 1062.83 657.099 1071.17C713.403 1101.41 774.921 1053.44 808.8 1009.2L785.369 1059.68Z" stroke="white" stroke-width="1.71011" stroke-miterlimit="10"/>
<path d="M823.504 861.149C818.713 901.212 802.03 938.748 766.579 962.729C757.717 968.464 751.261 967.785 749.324 957.783C748.854 939.79 750.939 921.022 751.982 903.297C762.409 788.603 671.696 706.232 573.685 663.482C562.216 658.269 558.045 643.672 549.704 634.288C524.68 603.008 482.973 565.471 446.479 588.41C368.279 637.416 358.895 750.024 425.626 815.712C469.418 858.462 524.68 831.353 558.045 786.518C584.112 751.067 636.246 772.963 658.142 806.328C677.952 837.609 682.123 874.102 671.696 909.553C641.459 1012.78 526.765 1051.36 429.691 1037.82C416.926 1039.56 403.982 1039.56 391.218 1037.8C363.066 1034.67 340.127 1013.82 329.7 987.753C340.127 1003.91 356.028 1013.56 373.883 1018.38C382.811 1020.79 392.228 1022 402.971 1022.88C489.229 1046.14 592.453 1033.63 647.715 950.217C672.739 910.596 684.208 861.59 662.312 819.883C651.886 802.158 638.331 786.518 619.563 778.176C599.752 769.835 573.685 770.878 560.131 789.646C541.362 814.67 522.594 842.822 490.272 843.865C462.119 845.95 436.053 830.31 418.327 809.456C366.194 751.067 360.98 649.928 426.669 598.837C454.821 575.898 497.57 561.301 526.765 592.581C568.472 636.373 609.136 673.909 662.312 705.189C729.043 745.854 763.451 814.67 779.091 890.785C780.337 895.32 782.412 899.584 785.212 903.363C789.463 908.189 796.806 898.43 802.268 886.264C807.834 873.403 811.187 859.694 812.186 845.715C813.335 831.411 812.325 816.879 809.142 799.238L823.504 861.149Z" stroke="white" stroke-width="1.71011" stroke-miterlimit="10"/>
<path d="M791.358 745.907C802.03 781.305 817.67 820.927 798.902 856.377C794.732 864.719 787.433 856.377 784.305 851.164C754.067 789.646 723.83 730.214 663.355 691.635C649.8 683.294 637.288 675.995 623.733 667.654C570.557 634.288 528.85 580.069 470.461 573.813C440.223 570.685 417.285 607.179 398.517 636.374C356.81 702.062 375.578 789.646 442.309 832.396C482.973 858.463 529.893 839.695 555.96 797.988C575.771 764.622 621.648 772.964 644.587 801.116C671.696 833.439 674.824 877.231 661.27 915.81C626.862 1010.69 511.125 1047.19 420.452 1021.22C398.326 1015.34 386.933 1013.56 376.816 1010.35C362.697 1005.88 350.03 997.721 340.127 986.711C341.17 975.242 346.128 965.616 366.747 971.757C425.626 988.797 498.613 991.925 545.533 946.047C504.869 987.754 442.309 995.053 387.047 984.626C456.906 1036.76 564.301 1023.2 623.734 958.559C660.227 917.895 676.91 856.377 641.459 808.414C623.734 784.433 584.112 770.878 566.387 799.03C537.192 844.908 487.144 867.847 440.223 834.481C374.535 787.561 355.767 698.934 396.431 635.331C419.37 596.752 470.461 538.363 515.296 582.155C560.131 625.947 614.349 650.971 668.568 681.209C710.275 705.19 738.427 739.598 771.793 774.006C775.964 777.134 783.262 784.433 784.305 780.262C796.817 745.854 767.622 712.489 748.854 684.337C757.195 693.721 762.409 705.19 770.265 714.245C780.867 729.708 791.358 745.907 791.358 745.907Z" stroke="#ED1C24" stroke-width="1.71011" stroke-miterlimit="10"/>
<path d="M597.318 597.904C599.752 604.051 614.35 609.264 608.094 609.264C567.43 610.307 527.808 591.538 514.585 549.987C510.616 546.14 500.004 544.097 485.059 544.618C473.068 544.618 462.877 552.392 450.431 563.553C376.621 620.733 363.066 720.83 388.09 806.329C331.786 772.963 349.511 698.934 339.085 642.629C338.042 638.459 333.871 635.331 329.831 632.985C316.354 628.993 302.442 626.652 288.401 626.012C274.176 625.411 259.949 627.151 246.287 631.16C272.354 610.828 302.33 605.875 333.35 606.266C348.86 606.462 363.619 608.833 367.242 621.574C370.365 635.331 371.407 649.928 372.45 663.483C392.261 634.288 411.029 599.88 422.322 566.891C416.762 557.136 408.813 549.18 399.56 542.533C381.052 529.239 358.374 520.637 335.957 515.423C292.164 504.997 248.372 511.253 207.708 528.978C267.14 501.869 336.999 500.826 395.389 540.448C404.773 546.704 415.2 554.002 423.15 562.865C428.995 572.832 411.142 597.335 393.402 624.789C380.825 650.634 371.239 663.607 370.105 656.107C367.523 639.023 370.886 609.525 349.12 606.918C327.355 604.311 305.719 604.051 284.866 613.435C296.78 610.465 309.015 608.977 321.294 609.003C333.351 609.058 345.391 609.929 357.331 611.61C369.322 633.245 364.109 659.312 368.279 682.251C370.365 679.123 372.45 675.995 373.493 672.867C369.322 682.251 367.237 691.635 365.151 701.019C384.962 658.27 395.389 608.221 433.648 578.029C445.055 567.74 453.778 551.656 458.601 542.142C463.423 532.628 472.025 526.372 486.101 528.978C500.64 531.713 514.835 536.03 528.434 541.853C528.851 551.917 525.723 562.344 531.979 571.728C538.235 582.154 552.832 588.411 565.344 583.197C568.472 581.112 565.344 581.112 564.395 581.282L597.318 597.904Z" stroke="#ED1C24" stroke-width="1.71011" stroke-miterlimit="10"/>
<path d="M775.61 348.972C772.836 349.638 768.665 351.724 766.58 354.852C702.977 489.356 524.68 492.484 407.771 434.486C393.792 432.954 379.806 431.741 365.801 431.034C344.746 429.868 323.636 430.163 302.621 431.916C277.567 433.052 248.372 426.796 230.647 446.607C218.367 458.707 205.123 469.788 191.047 479.74C168.087 483.1 146.19 477.887 123.252 477.887C97.1849 478.93 78.4168 493.527 60.6914 510.21C47.1367 494.57 62.7767 475.802 75.2888 465.375C69.0328 461.204 66.9474 452.863 73.2034 448.692C106.569 428.881 140.977 455.991 166.623 475.174C176.067 483.018 189.983 479.972 197.281 473.716C225.433 447.65 252.543 414.284 294.262 419.129C303.589 419.498 314.624 419.009 325.729 419.135C337.423 418.715 349.185 418.911 360.981 419.497C376.708 420.279 392.493 421.757 408.248 423.398C515.296 494.57 684.209 475.802 731.129 341.297C737.385 324.614 742.598 307.932 752.607 292.979L775.61 348.972Z" stroke="white" stroke-width="1.71011" stroke-miterlimit="10"/>
</g>
</svg>
