<svg width="992" height="591" viewBox="0 0 992 591" fill="none" xmlns="http://www.w3.org/2000/svg">
<path d="M64.512 141.712V171.152H122.112V209.296H64.512V241.808H129.792V282H14.336V101.52H129.792V141.712H64.512ZM330.202 101.52L267.994 282H203.738L141.274 101.52H195.034L235.994 231.824L276.698 101.52H330.202ZM432.364 283.792C415.468 283.792 399.937 279.867 385.772 272.016C371.607 263.995 360.343 252.987 351.98 238.992C343.788 224.827 339.692 208.869 339.692 191.12C339.692 173.371 343.788 157.499 351.98 143.504C360.343 129.339 371.607 118.331 385.772 110.48C399.937 102.629 415.468 98.704 432.364 98.704C449.431 98.704 464.961 102.629 478.956 110.48C493.121 118.331 504.3 129.339 512.492 143.504C520.684 157.499 524.78 173.371 524.78 191.12C524.78 208.869 520.684 224.827 512.492 238.992C504.3 252.987 493.121 263.995 478.956 272.016C464.791 279.867 449.26 283.792 432.364 283.792ZM432.364 237.2C445.164 237.2 455.233 233.019 462.572 224.656C470.081 216.293 473.836 205.115 473.836 191.12C473.836 176.784 470.081 165.52 462.572 157.328C455.233 148.965 445.164 144.784 432.364 144.784C419.393 144.784 409.239 148.965 401.9 157.328C394.561 165.52 390.892 176.784 390.892 191.12C390.892 205.285 394.561 216.549 401.9 224.912C409.239 233.104 419.393 237.2 432.364 237.2ZM597.512 243.6H653.576V282H547.336V101.52H597.512V243.6ZM848.702 101.52L786.494 282H722.238L659.774 101.52H713.534L754.494 231.824L795.198 101.52H848.702ZM914.512 141.712V171.152H972.112V209.296H914.512V241.808H979.792V282H864.336V101.52H979.792V141.712H914.512Z" fill="#E9280B"/>
<path d="M65.512 348.712V345.712H62.512V348.712H65.512ZM65.512 378.152H62.512V381.152H65.512V378.152ZM123.112 378.152H126.112V375.152H123.112V378.152ZM123.112 416.296V419.296H126.112V416.296H123.112ZM65.512 416.296V413.296H62.512V416.296H65.512ZM65.512 448.808H62.512V451.808H65.512V448.808ZM130.792 448.808H133.792V445.808H130.792V448.808ZM130.792 489V492H133.792V489H130.792ZM15.336 489H12.336V492H15.336V489ZM15.336 308.52V305.52H12.336V308.52H15.336ZM130.792 308.52H133.792V305.52H130.792V308.52ZM130.792 348.712V351.712H133.792V348.712H130.792ZM62.512 348.712V378.152H68.512V348.712H62.512ZM65.512 381.152H123.112V375.152H65.512V381.152ZM120.112 378.152V416.296H126.112V378.152H120.112ZM123.112 413.296H65.512V419.296H123.112V413.296ZM62.512 416.296V448.808H68.512V416.296H62.512ZM65.512 451.808H130.792V445.808H65.512V451.808ZM127.792 448.808V489H133.792V448.808H127.792ZM130.792 486H15.336V492H130.792V486ZM18.336 489V308.52H12.336V489H18.336ZM15.336 311.52H130.792V305.52H15.336V311.52ZM127.792 308.52V348.712H133.792V308.52H127.792ZM130.792 345.712H65.512V351.712H130.792V345.712ZM331.202 308.52L334.038 309.498L335.409 305.52H331.202V308.52ZM268.994 489V492H271.133L271.83 489.978L268.994 489ZM204.738 489L201.903 489.981L202.602 492H204.738V489ZM142.274 308.52V305.52H138.061L139.439 309.501L142.274 308.52ZM196.034 308.52L198.896 307.62L198.236 305.52H196.034V308.52ZM236.994 438.824L234.132 439.724L237.003 448.857L239.858 439.719L236.994 438.824ZM277.698 308.52V305.52H275.492L274.834 307.625L277.698 308.52ZM328.366 307.542L266.158 488.022L271.83 489.978L334.038 309.498L328.366 307.542ZM268.994 486H204.738V492H268.994V486ZM207.573 488.019L145.109 307.539L139.439 309.501L201.903 489.981L207.573 488.019ZM142.274 311.52H196.034V305.52H142.274V311.52ZM193.172 309.42L234.132 439.724L239.856 437.924L198.896 307.62L193.172 309.42ZM239.858 439.719L280.562 309.414L274.834 307.625L234.13 437.929L239.858 439.719ZM277.698 311.52H331.202V305.52H277.698V311.52ZM386.772 479.016L385.294 481.627L385.306 481.633L385.318 481.64L386.772 479.016ZM352.98 445.992L350.383 447.494L350.394 447.512L350.405 447.531L352.98 445.992ZM352.98 350.504L350.397 348.979L350.391 348.988L352.98 350.504ZM479.956 317.48L478.488 320.096L478.495 320.1L478.502 320.104L479.956 317.48ZM513.492 350.504L510.895 352.006L510.899 352.013L510.903 352.02L513.492 350.504ZM513.492 445.992L516.081 447.508L516.085 447.501L516.089 447.494L513.492 445.992ZM479.956 479.016L481.41 481.64L481.422 481.633L481.434 481.627L479.956 479.016ZM463.572 431.656L461.34 429.652L461.328 429.664L461.317 429.677L463.572 431.656ZM463.572 364.328L461.317 366.307L461.339 366.331L461.361 366.355L463.572 364.328ZM402.9 364.328L405.135 366.33L405.145 366.318L405.155 366.307L402.9 364.328ZM402.9 431.912L400.645 433.891L400.655 433.902L400.665 433.914L402.9 431.912ZM433.364 487.792C416.954 487.792 401.927 483.985 388.226 476.392L385.318 481.64C399.948 489.748 415.982 493.792 433.364 493.792V487.792ZM388.25 476.405C374.538 468.641 363.652 458.002 355.555 444.453L350.405 447.531C359.034 461.971 370.675 473.349 385.294 481.627L388.25 476.405ZM355.577 444.49C347.671 430.82 343.692 415.388 343.692 398.12H337.692C337.692 416.351 341.905 432.834 350.383 447.494L355.577 444.49ZM343.692 398.12C343.692 380.851 347.671 365.512 355.569 352.02L350.391 348.988C341.905 363.486 337.692 379.89 337.692 398.12H343.692ZM355.563 352.029C363.659 338.317 374.536 327.691 388.226 320.104L385.318 314.856C370.677 322.97 359.027 334.361 350.397 348.979L355.563 352.029ZM388.226 320.104C401.927 312.511 416.954 308.704 433.364 308.704V302.704C415.982 302.704 399.948 306.748 385.318 314.856L388.226 320.104ZM433.364 308.704C449.95 308.704 464.97 312.513 478.488 320.096L481.424 314.864C466.952 306.745 450.911 302.704 433.364 302.704V308.704ZM478.502 320.104C492.186 327.688 502.972 338.306 510.895 352.006L516.089 349.002C507.628 334.371 496.056 322.973 481.41 314.856L478.502 320.104ZM510.903 352.02C518.801 365.512 522.78 380.851 522.78 398.12H528.78C528.78 379.89 524.567 363.486 516.081 348.988L510.903 352.02ZM522.78 398.12C522.78 415.388 518.801 430.82 510.895 444.49L516.089 447.494C524.567 432.834 528.78 416.351 528.78 398.12H522.78ZM510.903 444.476C502.979 458.013 492.185 468.644 478.478 476.405L481.434 481.627C496.058 473.346 507.621 461.961 516.081 447.508L510.903 444.476ZM478.502 476.392C464.801 483.985 449.774 487.792 433.364 487.792V493.792C450.746 493.792 466.78 489.748 481.41 481.64L478.502 476.392ZM433.364 447.2C446.884 447.2 457.83 442.747 465.827 433.635L461.317 429.677C454.637 437.29 445.444 441.2 433.364 441.2V447.2ZM465.804 433.66C473.921 424.621 477.836 412.666 477.836 398.12H471.836C471.836 411.563 468.242 421.965 461.34 429.652L465.804 433.66ZM477.836 398.12C477.836 383.258 473.934 371.192 465.783 362.301L461.361 366.355C468.229 373.848 471.836 384.31 471.836 398.12H477.836ZM465.827 362.349C457.83 353.237 446.884 348.784 433.364 348.784V354.784C445.444 354.784 454.637 358.694 461.317 366.307L465.827 362.349ZM433.364 348.784C419.688 348.784 408.65 353.227 400.645 362.349L405.155 366.307C411.827 358.703 421.099 354.784 433.364 354.784V348.784ZM400.665 362.326C392.7 371.218 388.892 383.275 388.892 398.12H394.892C394.892 384.293 398.423 373.822 405.135 366.33L400.665 362.326ZM388.892 398.12C388.892 412.809 392.706 424.844 400.645 433.891L405.155 429.933C398.416 422.254 394.892 411.762 394.892 398.12H388.892ZM400.665 433.914C408.676 442.856 419.708 447.2 433.364 447.2V441.2C421.079 441.2 411.801 437.352 405.135 429.91L400.665 433.914ZM598.512 450.6H595.512V453.6H598.512V450.6ZM654.576 450.6H657.576V447.6H654.576V450.6ZM654.576 489V492H657.576V489H654.576ZM548.336 489H545.336V492H548.336V489ZM548.336 308.52V305.52H545.336V308.52H548.336ZM598.512 308.52H601.512V305.52H598.512V308.52ZM598.512 453.6H654.576V447.6H598.512V453.6ZM651.576 450.6V489H657.576V450.6H651.576ZM654.576 486H548.336V492H654.576V486ZM551.336 489V308.52H545.336V489H551.336ZM548.336 311.52H598.512V305.52H548.336V311.52ZM595.512 308.52V450.6H601.512V308.52H595.512ZM849.702 308.52L852.538 309.498L853.909 305.52H849.702V308.52ZM787.494 489V492H789.633L790.33 489.978L787.494 489ZM723.238 489L720.403 489.981L721.102 492H723.238V489ZM660.774 308.52V305.52H656.561L657.939 309.501L660.774 308.52ZM714.534 308.52L717.396 307.62L716.736 305.52H714.534V308.52ZM755.494 438.824L752.632 439.724L755.503 448.857L758.358 439.719L755.494 438.824ZM796.198 308.52V305.52H793.992L793.334 307.625L796.198 308.52ZM846.866 307.542L784.658 488.022L790.33 489.978L852.538 309.498L846.866 307.542ZM787.494 486H723.238V492H787.494V486ZM726.073 488.019L663.609 307.539L657.939 309.501L720.403 489.981L726.073 488.019ZM660.774 311.52H714.534V305.52H660.774V311.52ZM711.672 309.42L752.632 439.724L758.356 437.924L717.396 307.62L711.672 309.42ZM758.358 439.719L799.062 309.414L793.334 307.625L752.63 437.929L758.358 439.719ZM796.198 311.52H849.702V305.52H796.198V311.52ZM915.512 348.712V345.712H912.512V348.712H915.512ZM915.512 378.152H912.512V381.152H915.512V378.152ZM973.112 378.152H976.112V375.152H973.112V378.152ZM973.112 416.296V419.296H976.112V416.296H973.112ZM915.512 416.296V413.296H912.512V416.296H915.512ZM915.512 448.808H912.512V451.808H915.512V448.808ZM980.792 448.808H983.792V445.808H980.792V448.808ZM980.792 489V492H983.792V489H980.792ZM865.336 489H862.336V492H865.336V489ZM865.336 308.52V305.52H862.336V308.52H865.336ZM980.792 308.52H983.792V305.52H980.792V308.52ZM980.792 348.712V351.712H983.792V348.712H980.792ZM912.512 348.712V378.152H918.512V348.712H912.512ZM915.512 381.152H973.112V375.152H915.512V381.152ZM970.112 378.152V416.296H976.112V378.152H970.112ZM973.112 413.296H915.512V419.296H973.112V413.296ZM912.512 416.296V448.808H918.512V416.296H912.512ZM915.512 451.808H980.792V445.808H915.512V451.808ZM977.792 448.808V489H983.792V448.808H977.792ZM980.792 486H865.336V492H980.792V486ZM868.336 489V308.52H862.336V489H868.336ZM865.336 311.52H980.792V305.52H865.336V311.52ZM977.792 308.52V348.712H983.792V308.52H977.792ZM980.792 345.712H915.512V351.712H980.792V345.712Z" fill="#E9280B"/>
</svg>