<svg width="236" height="144" viewBox="0 0 236 144" fill="none" xmlns="http://www.w3.org/2000/svg">
<rect y="4" width="111" height="62" fill="#E9280B"/>
<path d="M18.816 53.336C15.712 53.336 12.848 52.616 10.224 51.176C7.632 49.704 5.568 47.672 4.032 45.08C2.528 42.456 1.776 39.512 1.776 36.248C1.776 32.984 2.528 30.056 4.032 27.464C5.568 24.872 7.632 22.856 10.224 21.416C12.848 19.944 15.712 19.208 18.816 19.208C21.952 19.208 24.816 19.944 27.408 21.416C30.032 22.856 32.096 24.872 33.6 27.464C35.104 30.056 35.856 32.984 35.856 36.248C35.856 39.512 35.104 42.456 33.6 45.08C32.096 47.672 30.032 49.704 27.408 51.176C24.816 52.616 21.952 53.336 18.816 53.336ZM18.816 48.584C21.024 48.584 22.992 48.088 24.72 47.096C26.448 46.072 27.792 44.632 28.752 42.776C29.744 40.888 30.24 38.712 30.24 36.248C30.24 33.784 29.744 31.624 28.752 29.768C27.792 27.912 26.448 26.488 24.72 25.496C22.992 24.504 21.024 24.008 18.816 24.008C16.608 24.008 14.64 24.504 12.912 25.496C11.184 26.488 9.824 27.912 8.832 29.768C7.872 31.624 7.392 33.784 7.392 36.248C7.392 38.712 7.872 40.888 8.832 42.776C9.824 44.632 11.184 46.072 12.912 47.096C14.64 48.088 16.608 48.584 18.816 48.584ZM46.6646 19.64V40.904C46.6646 43.432 47.3206 45.336 48.6326 46.616C49.9766 47.896 51.8326 48.536 54.2006 48.536C56.6006 48.536 58.4566 47.896 59.7686 46.616C61.1126 45.336 61.7846 43.432 61.7846 40.904V19.64H67.2566V40.808C67.2566 43.528 66.6646 45.832 65.4806 47.72C64.2966 49.608 62.7126 51.016 60.7286 51.944C58.7446 52.872 56.5526 53.336 54.1526 53.336C51.7526 53.336 49.5606 52.872 47.5766 51.944C45.6246 51.016 44.0726 49.608 42.9206 47.72C41.7686 45.832 41.1926 43.528 41.1926 40.808V19.64H46.6646ZM91.7093 53L84.0293 39.656H79.8533V53H74.3813V19.64H85.9013C88.4613 19.64 90.6213 20.088 92.3813 20.984C94.1733 21.88 95.5013 23.08 96.3653 24.584C97.2613 26.088 97.7093 27.768 97.7093 29.624C97.7093 31.8 97.0693 33.784 95.7893 35.576C94.5413 37.336 92.6053 38.536 89.9813 39.176L98.2373 53H91.7093ZM79.8533 35.288H85.9013C87.9493 35.288 89.4853 34.776 90.5093 33.752C91.5653 32.728 92.0933 31.352 92.0933 29.624C92.0933 27.896 91.5813 26.552 90.5573 25.592C89.5333 24.6 87.9813 24.104 85.9013 24.104H79.8533V35.288ZM14.88 125.336C12.544 125.336 10.432 124.936 8.544 124.136C6.688 123.336 5.216 122.184 4.128 120.68C3.04 119.176 2.48 117.4 2.448 115.352H9.648C9.744 116.728 10.224 117.816 11.088 118.616C11.984 119.416 13.2 119.816 14.736 119.816C16.304 119.816 17.536 119.448 18.432 118.712C19.328 117.944 19.776 116.952 19.776 115.736C19.776 114.744 19.472 113.928 18.864 113.288C18.256 112.648 17.488 112.152 16.56 111.8C15.664 111.416 14.416 111 12.816 110.552C10.64 109.912 8.864 109.288 7.488 108.68C6.144 108.04 4.976 107.096 3.984 105.848C3.024 104.568 2.544 102.872 2.544 100.76C2.544 98.776 3.04 97.048 4.032 95.576C5.024 94.104 6.416 92.984 8.208 92.216C10 91.416 12.048 91.016 14.352 91.016C17.808 91.016 20.608 91.864 22.752 93.56C24.928 95.224 26.128 97.56 26.352 100.568H18.96C18.896 99.416 18.4 98.472 17.472 97.736C16.576 96.968 15.376 96.584 13.872 96.584C12.56 96.584 11.504 96.92 10.704 97.592C9.936 98.264 9.552 99.24 9.552 100.52C9.552 101.416 9.84 102.168 10.416 102.776C11.024 103.352 11.76 103.832 12.624 104.216C13.52 104.568 14.768 104.984 16.368 105.464C18.544 106.104 20.32 106.744 21.696 107.384C23.072 108.024 24.256 108.984 25.248 110.264C26.24 111.544 26.736 113.224 26.736 115.304C26.736 117.096 26.272 118.76 25.344 120.296C24.416 121.832 23.056 123.064 21.264 123.992C19.472 124.888 17.344 125.336 14.88 125.336ZM56.994 101.864C56.994 103.656 56.562 105.336 55.698 106.904C54.866 108.472 53.538 109.736 51.714 110.696C49.922 111.656 47.65 112.136 44.898 112.136H39.282V125H32.562V91.496H44.898C47.49 91.496 49.698 91.944 51.522 92.84C53.346 93.736 54.706 94.968 55.602 96.536C56.53 98.104 56.994 99.88 56.994 101.864ZM44.61 106.712C46.466 106.712 47.842 106.296 48.738 105.464C49.634 104.6 50.082 103.4 50.082 101.864C50.082 98.6 48.258 96.968 44.61 96.968H39.282V106.712H44.61ZM68.4851 96.92V105.32H79.7651V110.648H68.4851V119.528H81.2051V125H61.7651V91.448H81.2051V96.92H68.4851ZM107.856 118.616H94.512L92.304 125H85.248L97.296 91.448H105.12L117.168 125H110.064L107.856 118.616ZM106.032 113.24L101.184 99.224L96.336 113.24H106.032ZM140.583 125L128.391 110.072V125H121.671V91.496H128.391V106.52L140.583 91.496H148.695L134.871 108.104L149.079 125H140.583ZM160.22 96.92V105.32H171.5V110.648H160.22V119.528H172.94V125H153.5V91.448H172.94V96.92H160.22ZM196.326 125L188.934 111.944H185.766V125H179.046V91.496H191.622C194.214 91.496 196.422 91.96 198.246 92.888C200.07 93.784 201.43 95.016 202.326 96.584C203.254 98.12 203.718 99.848 203.718 101.768C203.718 103.976 203.078 105.976 201.798 107.768C200.518 109.528 198.614 110.744 196.086 111.416L204.102 125H196.326ZM185.766 106.904H191.382C193.206 106.904 194.566 106.472 195.462 105.608C196.358 104.712 196.806 103.48 196.806 101.912C196.806 100.376 196.358 99.192 195.462 98.36C194.566 97.496 193.206 97.064 191.382 97.064H185.766V106.904ZM221.364 125.336C219.028 125.336 216.916 124.936 215.028 124.136C213.172 123.336 211.7 122.184 210.612 120.68C209.524 119.176 208.964 117.4 208.932 115.352H216.132C216.228 116.728 216.708 117.816 217.572 118.616C218.468 119.416 219.684 119.816 221.22 119.816C222.788 119.816 224.02 119.448 224.916 118.712C225.812 117.944 226.26 116.952 226.26 115.736C226.26 114.744 225.956 113.928 225.348 113.288C224.74 112.648 223.972 112.152 223.044 111.8C222.148 111.416 220.9 111 219.3 110.552C217.124 109.912 215.348 109.288 213.972 108.68C212.628 108.04 211.46 107.096 210.468 105.848C209.508 104.568 209.028 102.872 209.028 100.76C209.028 98.776 209.524 97.048 210.516 95.576C211.508 94.104 212.9 92.984 214.692 92.216C216.484 91.416 218.532 91.016 220.836 91.016C224.292 91.016 227.092 91.864 229.236 93.56C231.412 95.224 232.612 97.56 232.836 100.568H225.444C225.38 99.416 224.884 98.472 223.956 97.736C223.06 96.968 221.86 96.584 220.356 96.584C219.044 96.584 217.988 96.92 217.188 97.592C216.42 98.264 216.036 99.24 216.036 100.52C216.036 101.416 216.324 102.168 216.9 102.776C217.508 103.352 218.244 103.832 219.108 104.216C220.004 104.568 221.252 104.984 222.852 105.464C225.028 106.104 226.804 106.744 228.18 107.384C229.556 108.024 230.74 108.984 231.732 110.264C232.724 111.544 233.22 113.224 233.22 115.304C233.22 117.096 232.756 118.76 231.828 120.296C230.9 121.832 229.54 123.064 227.748 123.992C225.956 124.888 223.828 125.336 221.364 125.336Z" fill="white"/>
</svg>
