<svg width="630" height="144" viewBox="0 0 630 144" fill="none" xmlns="http://www.w3.org/2000/svg">
<rect y="3" width="250" height="62" fill="#E9280B"/>
<path d="M38.736 19.64V53H33.264V30.152L23.088 53H19.296L9.072 30.152V53H3.6V19.64H9.504L21.216 45.8L32.88 19.64H38.736ZM70.1681 39.128C70.1681 40.12 70.1041 41.016 69.9761 41.816H49.7681C49.9281 43.928 50.7121 45.624 52.1201 46.904C53.5281 48.184 55.2561 48.824 57.3041 48.824C60.2481 48.824 62.3281 47.592 63.5441 45.128H69.4481C68.6481 47.56 67.1921 49.56 65.0801 51.128C63.0001 52.664 60.4081 53.432 57.3041 53.432C54.7761 53.432 52.5041 52.872 50.4881 51.752C48.5041 50.6 46.9361 49 45.7841 46.952C44.6641 44.872 44.1041 42.472 44.1041 39.752C44.1041 37.032 44.6481 34.648 45.7361 32.6C46.8561 30.52 48.4081 28.92 50.3921 27.8C52.4081 26.68 54.7121 26.12 57.3041 26.12C59.8001 26.12 62.0241 26.664 63.9761 27.752C65.9281 28.84 67.4481 30.376 68.5361 32.36C69.6241 34.312 70.1681 36.568 70.1681 39.128ZM64.4561 37.4C64.4241 35.384 63.7041 33.768 62.2961 32.552C60.8881 31.336 59.1441 30.728 57.0641 30.728C55.1761 30.728 53.5601 31.336 52.2161 32.552C50.8721 33.736 50.0721 35.352 49.8161 37.4H64.4561ZM107.569 26.12C109.649 26.12 111.505 26.552 113.137 27.416C114.801 28.28 116.097 29.56 117.025 31.256C117.985 32.952 118.465 35 118.465 37.4V53H113.041V38.216C113.041 35.848 112.449 34.04 111.265 32.792C110.081 31.512 108.465 30.872 106.417 30.872C104.369 30.872 102.737 31.512 101.521 32.792C100.337 34.04 99.7451 35.848 99.7451 38.216V53H94.3211V38.216C94.3211 35.848 93.7291 34.04 92.5451 32.792C91.3611 31.512 89.7451 30.872 87.6971 30.872C85.6491 30.872 84.0171 31.512 82.8011 32.792C81.6171 34.04 81.0251 35.848 81.0251 38.216V53H75.5531V26.552H81.0251V29.576C81.9211 28.488 83.0571 27.64 84.4331 27.032C85.8091 26.424 87.2811 26.12 88.8491 26.12C90.9611 26.12 92.8491 26.568 94.5131 27.464C96.1771 28.36 97.4571 29.656 98.3531 31.352C99.1531 29.752 100.401 28.488 102.097 27.56C103.793 26.6 105.617 26.12 107.569 26.12ZM136.9 53.432C134.404 53.432 132.148 52.872 130.132 51.752C128.116 50.6 126.532 49 125.38 46.952C124.228 44.872 123.652 42.472 123.652 39.752C123.652 37.064 124.244 34.68 125.428 32.6C126.612 30.52 128.228 28.92 130.276 27.8C132.324 26.68 134.612 26.12 137.14 26.12C139.668 26.12 141.956 26.68 144.004 27.8C146.052 28.92 147.668 30.52 148.852 32.6C150.036 34.68 150.628 37.064 150.628 39.752C150.628 42.44 150.02 44.824 148.804 46.904C147.588 48.984 145.924 50.6 143.812 51.752C141.732 52.872 139.428 53.432 136.9 53.432ZM136.9 48.68C138.308 48.68 139.62 48.344 140.836 47.672C142.084 47 143.092 45.992 143.86 44.648C144.628 43.304 145.012 41.672 145.012 39.752C145.012 37.832 144.644 36.216 143.908 34.904C143.172 33.56 142.196 32.552 140.98 31.88C139.764 31.208 138.452 30.872 137.044 30.872C135.636 30.872 134.324 31.208 133.108 31.88C131.924 32.552 130.98 33.56 130.276 34.904C129.572 36.216 129.22 37.832 129.22 39.752C129.22 42.6 129.94 44.808 131.38 46.376C132.852 47.912 134.692 48.68 136.9 48.68ZM161.51 30.392C162.31 29.048 163.366 28.008 164.678 27.272C166.022 26.504 167.606 26.12 169.43 26.12V31.784H168.038C165.894 31.784 164.262 32.328 163.142 33.416C162.054 34.504 161.51 36.392 161.51 39.08V53H156.038V26.552H161.51V30.392ZM177.243 23.048C176.251 23.048 175.419 22.712 174.747 22.04C174.075 21.368 173.739 20.536 173.739 19.544C173.739 18.552 174.075 17.72 174.747 17.048C175.419 16.376 176.251 16.04 177.243 16.04C178.203 16.04 179.019 16.376 179.691 17.048C180.363 17.72 180.699 18.552 180.699 19.544C180.699 20.536 180.363 21.368 179.691 22.04C179.019 22.712 178.203 23.048 177.243 23.048ZM179.931 26.552V53H174.459V26.552H179.931ZM211.356 39.128C211.356 40.12 211.292 41.016 211.164 41.816H190.956C191.116 43.928 191.9 45.624 193.308 46.904C194.716 48.184 196.444 48.824 198.492 48.824C201.436 48.824 203.516 47.592 204.732 45.128H210.636C209.836 47.56 208.38 49.56 206.268 51.128C204.188 52.664 201.596 53.432 198.492 53.432C195.964 53.432 193.692 52.872 191.676 51.752C189.692 50.6 188.124 49 186.972 46.952C185.852 44.872 185.292 42.472 185.292 39.752C185.292 37.032 185.836 34.648 186.924 32.6C188.044 30.52 189.596 28.92 191.58 27.8C193.596 26.68 195.9 26.12 198.492 26.12C200.988 26.12 203.212 26.664 205.164 27.752C207.116 28.84 208.636 30.376 209.724 32.36C210.812 34.312 211.356 36.568 211.356 39.128ZM205.644 37.4C205.612 35.384 204.892 33.768 203.484 32.552C202.076 31.336 200.332 30.728 198.252 30.728C196.364 30.728 194.748 31.336 193.404 32.552C192.06 33.736 191.26 35.352 191.004 37.4H205.644ZM226.341 53.432C224.261 53.432 222.389 53.064 220.725 52.328C219.093 51.56 217.797 50.536 216.837 49.256C215.877 47.944 215.365 46.488 215.301 44.888H220.965C221.061 46.008 221.589 46.952 222.549 47.72C223.541 48.456 224.773 48.824 226.245 48.824C227.781 48.824 228.965 48.536 229.797 47.96C230.661 47.352 231.093 46.584 231.093 45.656C231.093 44.664 230.613 43.928 229.653 43.448C228.725 42.968 227.237 42.44 225.189 41.864C223.205 41.32 221.589 40.792 220.341 40.28C219.093 39.768 218.005 38.984 217.077 37.928C216.181 36.872 215.733 35.48 215.733 33.752C215.733 32.344 216.149 31.064 216.981 29.912C217.813 28.728 218.997 27.8 220.533 27.128C222.101 26.456 223.893 26.12 225.909 26.12C228.917 26.12 231.333 26.888 233.157 28.424C235.013 29.928 236.005 31.992 236.133 34.616H230.661C230.565 33.432 230.085 32.488 229.221 31.784C228.357 31.08 227.189 30.728 225.717 30.728C224.277 30.728 223.173 31 222.405 31.544C221.637 32.088 221.253 32.808 221.253 33.704C221.253 34.408 221.509 35 222.021 35.48C222.533 35.96 223.157 36.344 223.893 36.632C224.629 36.888 225.717 37.224 227.157 37.64C229.077 38.152 230.645 38.68 231.861 39.224C233.109 39.736 234.181 40.504 235.077 41.528C235.973 42.552 236.437 43.912 236.469 45.608C236.469 47.112 236.053 48.456 235.221 49.64C234.389 50.824 233.205 51.752 231.669 52.424C230.165 53.096 228.389 53.432 226.341 53.432ZM26.112 91.496V96.92H17.184V125H10.464V96.92H1.536V91.496H26.112ZM37.7351 96.92V105.32H49.0151V110.648H37.7351V119.528H50.4551V125H31.0151V91.448H50.4551V96.92H37.7351ZM68.274 91.496C71.794 91.496 74.882 92.184 77.538 93.56C80.226 94.936 82.29 96.904 83.73 99.464C85.202 101.992 85.938 104.936 85.938 108.296C85.938 111.656 85.202 114.6 83.73 117.128C82.29 119.624 80.226 121.56 77.538 122.936C74.882 124.312 71.794 125 68.274 125H56.562V91.496H68.274ZM68.034 119.288C71.554 119.288 74.274 118.328 76.194 116.408C78.114 114.488 79.074 111.784 79.074 108.296C79.074 104.808 78.114 102.088 76.194 100.136C74.274 98.152 71.554 97.16 68.034 97.16H63.282V119.288H68.034ZM105.656 125L100.184 116.744L95.3363 125H88.1363L96.8243 111.656L88.0403 98.408H95.6243L101.048 106.616L105.944 98.408H113.144L104.408 111.656L113.24 125H105.656ZM140.218 101.576C139.45 100.168 138.394 99.096 137.05 98.36C135.706 97.624 134.138 97.256 132.346 97.256C130.362 97.256 128.602 97.704 127.066 98.6C125.53 99.496 124.33 100.776 123.466 102.44C122.602 104.104 122.17 106.024 122.17 108.2C122.17 110.44 122.602 112.392 123.466 114.056C124.362 115.72 125.594 117 127.162 117.896C128.73 118.792 130.554 119.24 132.634 119.24C135.194 119.24 137.29 118.568 138.922 117.224C140.554 115.848 141.626 113.944 142.138 111.512H130.618V106.376H148.762V112.232C148.314 114.568 147.354 116.728 145.882 118.712C144.41 120.696 142.506 122.296 140.17 123.512C137.866 124.696 135.274 125.288 132.394 125.288C129.162 125.288 126.234 124.568 123.61 123.128C121.018 121.656 118.97 119.624 117.466 117.032C115.994 114.44 115.258 111.496 115.258 108.2C115.258 104.904 115.994 101.96 117.466 99.368C118.97 96.744 121.018 94.712 123.61 93.272C126.234 91.8 129.146 91.064 132.346 91.064C136.122 91.064 139.402 91.992 142.186 93.848C144.97 95.672 146.89 98.248 147.946 101.576H140.218ZM160.454 102.536C161.318 101.128 162.438 100.024 163.814 99.224C165.222 98.424 166.822 98.024 168.614 98.024V105.08H166.838C164.726 105.08 163.126 105.576 162.038 106.568C160.982 107.56 160.454 109.288 160.454 111.752V125H153.734V98.408H160.454V102.536ZM171.412 111.608C171.412 108.92 171.94 106.536 172.996 104.456C174.084 102.376 175.54 100.776 177.364 99.656C179.22 98.536 181.284 97.976 183.556 97.976C185.54 97.976 187.268 98.376 188.74 99.176C190.244 99.976 191.444 100.984 192.34 102.2V98.408H199.108V125H192.34V121.112C191.476 122.36 190.276 123.4 188.74 124.232C187.236 125.032 185.492 125.432 183.508 125.432C181.268 125.432 179.22 124.856 177.364 123.704C175.54 122.552 174.084 120.936 172.996 118.856C171.94 116.744 171.412 114.328 171.412 111.608ZM192.34 111.704C192.34 110.072 192.02 108.68 191.38 107.528C190.74 106.344 189.876 105.448 188.788 104.84C187.7 104.2 186.532 103.88 185.284 103.88C184.036 103.88 182.884 104.184 181.828 104.792C180.772 105.4 179.908 106.296 179.236 107.48C178.596 108.632 178.276 110.008 178.276 111.608C178.276 113.208 178.596 114.616 179.236 115.832C179.908 117.016 180.772 117.928 181.828 118.568C182.916 119.208 184.068 119.528 185.284 119.528C186.532 119.528 187.7 119.224 188.788 118.616C189.876 117.976 190.74 117.08 191.38 115.928C192.02 114.744 192.34 113.336 192.34 111.704ZM212.391 102.248C213.255 101.032 214.439 100.024 215.943 99.224C217.479 98.392 219.223 97.976 221.175 97.976C223.447 97.976 225.495 98.536 227.319 99.656C229.175 100.776 230.631 102.376 231.687 104.456C232.775 106.504 233.319 108.888 233.319 111.608C233.319 114.328 232.775 116.744 231.687 118.856C230.631 120.936 229.175 122.552 227.319 123.704C225.495 124.856 223.447 125.432 221.175 125.432C219.223 125.432 217.495 125.032 215.991 124.232C214.519 123.432 213.319 122.424 212.391 121.208V137.672H205.671V98.408H212.391V102.248ZM226.455 111.608C226.455 110.008 226.119 108.632 225.447 107.48C224.807 106.296 223.943 105.4 222.855 104.792C221.799 104.184 220.647 103.88 219.399 103.88C218.183 103.88 217.031 104.2 215.943 104.84C214.887 105.448 214.023 106.344 213.351 107.528C212.711 108.712 212.391 110.104 212.391 111.704C212.391 113.304 212.711 114.696 213.351 115.88C214.023 117.064 214.887 117.976 215.943 118.616C217.031 119.224 218.183 119.528 219.399 119.528C220.647 119.528 221.799 119.208 222.855 118.568C223.943 117.928 224.807 117.016 225.447 115.832C226.119 114.648 226.455 113.24 226.455 111.608ZM253.179 98.024C255.195 98.024 256.987 98.472 258.555 99.368C260.123 100.232 261.339 101.528 262.203 103.256C263.099 104.952 263.547 107 263.547 109.4V125H256.827V110.312C256.827 108.2 256.299 106.584 255.243 105.464C254.187 104.312 252.747 103.736 250.923 103.736C249.067 103.736 247.595 104.312 246.507 105.464C245.451 106.584 244.923 108.2 244.923 110.312V125H238.203V89.48H244.923V101.72C245.787 100.568 246.939 99.672 248.379 99.032C249.819 98.36 251.419 98.024 253.179 98.024ZM273.345 95.24C272.161 95.24 271.169 94.872 270.369 94.136C269.601 93.368 269.217 92.424 269.217 91.304C269.217 90.184 269.601 89.256 270.369 88.52C271.169 87.752 272.161 87.368 273.345 87.368C274.529 87.368 275.505 87.752 276.273 88.52C277.073 89.256 277.473 90.184 277.473 91.304C277.473 92.424 277.073 93.368 276.273 94.136C275.505 94.872 274.529 95.24 273.345 95.24ZM276.657 98.408V125H269.937V98.408H276.657ZM281.568 111.704C281.568 108.952 282.128 106.552 283.248 104.504C284.368 102.424 285.92 100.824 287.904 99.704C289.888 98.552 292.16 97.976 294.72 97.976C298.016 97.976 300.736 98.808 302.88 100.472C305.056 102.104 306.512 104.408 307.248 107.384H300C299.616 106.232 298.96 105.336 298.032 104.696C297.136 104.024 296.016 103.688 294.672 103.688C292.752 103.688 291.232 104.392 290.112 105.8C288.992 107.176 288.432 109.144 288.432 111.704C288.432 114.232 288.992 116.2 290.112 117.608C291.232 118.984 292.752 119.672 294.672 119.672C297.392 119.672 299.168 118.456 300 116.024H307.248C306.512 118.904 305.056 121.192 302.88 122.888C300.704 124.584 297.984 125.432 294.72 125.432C292.16 125.432 289.888 124.872 287.904 123.752C285.92 122.6 284.368 121 283.248 118.952C282.128 116.872 281.568 114.456 281.568 111.704ZM318.891 96.92V105.32H330.171V110.648H318.891V119.528H331.611V125H312.171V91.448H331.611V96.92H318.891ZM344.438 102.536C345.302 101.128 346.422 100.024 347.798 99.224C349.206 98.424 350.806 98.024 352.598 98.024V105.08H350.822C348.71 105.08 347.11 105.576 346.022 106.568C344.966 107.56 344.438 109.288 344.438 111.752V125H337.718V98.408H344.438V102.536ZM355.396 111.608C355.396 108.92 355.924 106.536 356.98 104.456C358.069 102.376 359.525 100.776 361.349 99.656C363.205 98.536 365.269 97.976 367.541 97.976C369.525 97.976 371.253 98.376 372.725 99.176C374.229 99.976 375.429 100.984 376.325 102.2V98.408H383.093V125H376.325V121.112C375.461 122.36 374.261 123.4 372.725 124.232C371.221 125.032 369.477 125.432 367.493 125.432C365.253 125.432 363.205 124.856 361.349 123.704C359.525 122.552 358.069 120.936 356.98 118.856C355.924 116.744 355.396 114.328 355.396 111.608ZM376.325 111.704C376.325 110.072 376.005 108.68 375.365 107.528C374.725 106.344 373.861 105.448 372.773 104.84C371.685 104.2 370.517 103.88 369.269 103.88C368.021 103.88 366.869 104.184 365.812 104.792C364.757 105.4 363.893 106.296 363.221 107.48C362.581 108.632 362.261 110.008 362.261 111.608C362.261 113.208 362.581 114.616 363.221 115.832C363.893 117.016 364.757 117.928 365.812 118.568C366.901 119.208 368.053 119.528 369.269 119.528C370.517 119.528 371.685 119.224 372.773 118.616C373.861 117.976 374.725 117.08 375.365 115.928C376.005 114.744 376.325 113.336 376.325 111.704ZM396.28 91.496V112.232C396.28 114.504 396.872 116.248 398.056 117.464C399.24 118.648 400.904 119.24 403.048 119.24C405.224 119.24 406.904 118.648 408.088 117.464C409.272 116.248 409.864 114.504 409.864 112.232V91.496H416.632V112.184C416.632 115.032 416.008 117.448 414.76 119.432C413.544 121.384 411.896 122.856 409.816 123.848C407.768 124.84 405.48 125.336 402.952 125.336C400.456 125.336 398.184 124.84 396.136 123.848C394.12 122.856 392.52 121.384 391.336 119.432C390.152 117.448 389.56 115.032 389.56 112.184V91.496H396.28ZM437.861 98.024C441.029 98.024 443.589 99.032 445.541 101.048C447.493 103.032 448.469 105.816 448.469 109.4V125H441.749V110.312C441.749 108.2 441.221 106.584 440.165 105.464C439.109 104.312 437.669 103.736 435.845 103.736C433.989 103.736 432.517 104.312 431.429 105.464C430.373 106.584 429.845 108.2 429.845 110.312V125H423.125V98.408H429.845V101.72C430.741 100.568 431.877 99.672 433.253 99.032C434.661 98.36 436.197 98.024 437.861 98.024ZM458.267 95.24C457.083 95.24 456.091 94.872 455.291 94.136C454.523 93.368 454.139 92.424 454.139 91.304C454.139 90.184 454.523 89.256 455.291 88.52C456.091 87.752 457.083 87.368 458.267 87.368C459.451 87.368 460.427 87.752 461.195 88.52C461.995 89.256 462.395 90.184 462.395 91.304C462.395 92.424 461.995 93.368 461.195 94.136C460.427 94.872 459.451 95.24 458.267 95.24ZM461.579 98.408V125H454.859V98.408H461.579ZM479.306 118.808L486.026 98.408H493.178L483.338 125H475.178L465.386 98.408H472.586L479.306 118.808ZM521.673 111.128C521.673 112.088 521.609 112.952 521.481 113.72H502.041C502.201 115.64 502.873 117.144 504.057 118.232C505.241 119.32 506.697 119.864 508.425 119.864C510.921 119.864 512.697 118.792 513.753 116.648H521.001C520.233 119.208 518.761 121.32 516.585 122.984C514.409 124.616 511.737 125.432 508.569 125.432C506.009 125.432 503.705 124.872 501.657 123.752C499.641 122.6 498.057 120.984 496.905 118.904C495.785 116.824 495.225 114.424 495.225 111.704C495.225 108.952 495.785 106.536 496.905 104.456C498.025 102.376 499.593 100.776 501.609 99.656C503.625 98.536 505.945 97.976 508.569 97.976C511.097 97.976 513.353 98.52 515.337 99.608C517.353 100.696 518.905 102.248 519.993 104.264C521.113 106.248 521.673 108.536 521.673 111.128ZM514.713 109.208C514.681 107.48 514.057 106.104 512.841 105.08C511.625 104.024 510.137 103.496 508.377 103.496C506.713 103.496 505.305 104.008 504.153 105.032C503.033 106.024 502.345 107.416 502.089 109.208H514.713ZM533.298 102.536C534.162 101.128 535.282 100.024 536.658 99.224C538.066 98.424 539.666 98.024 541.458 98.024V105.08H539.682C537.57 105.08 535.97 105.576 534.882 106.568C533.826 107.56 533.298 109.288 533.298 111.752V125H526.578V98.408H533.298V102.536ZM556.16 125.432C553.984 125.432 552.032 125.048 550.304 124.28C548.576 123.48 547.2 122.408 546.176 121.064C545.184 119.72 544.64 118.232 544.544 116.6H551.312C551.44 117.624 551.936 118.472 552.8 119.144C553.696 119.816 554.8 120.152 556.112 120.152C557.392 120.152 558.384 119.896 559.088 119.384C559.824 118.872 560.192 118.216 560.192 117.416C560.192 116.552 559.744 115.912 558.848 115.496C557.984 115.048 556.592 114.568 554.672 114.056C552.688 113.576 551.056 113.08 549.776 112.568C548.528 112.056 547.44 111.272 546.512 110.216C545.616 109.16 545.168 107.736 545.168 105.944C545.168 104.472 545.584 103.128 546.416 101.912C547.28 100.696 548.496 99.736 550.064 99.032C551.664 98.328 553.536 97.976 555.68 97.976C558.848 97.976 561.376 98.776 563.264 100.376C565.152 101.944 566.192 104.072 566.384 106.76H559.952C559.856 105.704 559.408 104.872 558.608 104.264C557.84 103.624 556.8 103.304 555.488 103.304C554.272 103.304 553.328 103.528 552.656 103.976C552.016 104.424 551.696 105.048 551.696 105.848C551.696 106.744 552.144 107.432 553.04 107.912C553.936 108.36 555.328 108.824 557.216 109.304C559.136 109.784 560.72 110.28 561.968 110.792C563.216 111.304 564.288 112.104 565.184 113.192C566.112 114.248 566.592 115.656 566.624 117.416C566.624 118.952 566.192 120.328 565.328 121.544C564.496 122.76 563.28 123.72 561.68 124.424C560.112 125.096 558.272 125.432 556.16 125.432ZM575.548 95.24C574.364 95.24 573.372 94.872 572.572 94.136C571.804 93.368 571.42 92.424 571.42 91.304C571.42 90.184 571.804 89.256 572.572 88.52C573.372 87.752 574.364 87.368 575.548 87.368C576.732 87.368 577.708 87.752 578.476 88.52C579.276 89.256 579.676 90.184 579.676 91.304C579.676 92.424 579.276 93.368 578.476 94.136C577.708 94.872 576.732 95.24 575.548 95.24ZM578.86 98.408V125H572.14V98.408H578.86ZM593.324 103.928V116.792C593.324 117.688 593.532 118.344 593.948 118.76C594.396 119.144 595.132 119.336 596.156 119.336H599.276V125H595.052C589.388 125 586.556 122.248 586.556 116.744V103.928H583.388V98.408H586.556V91.832H593.324V98.408H599.276V103.928H593.324ZM629.549 98.408L613.085 137.576H605.933L611.693 124.328L601.037 98.408H608.573L615.437 116.984L622.397 98.408H629.549Z" fill="white"/>
</svg>
