<svg width="364" height="55" viewBox="0 0 364 55" fill="none" xmlns="http://www.w3.org/2000/svg">
<path d="M23.6136 19.3409L22.4545 23.2955H0.363636L1.52273 19.3409H23.6136ZM13.25 46L0.772727 30.7273L0.704545 27.8636H6.90909C8.52273 27.8636 9.89773 27.6364 11.0341 27.1818C12.1705 26.7159 13.0398 26.0227 13.642 25.1023C14.2443 24.1705 14.5455 23 14.5455 21.5909C14.5455 19.5114 13.9205 17.8807 12.6705 16.6989C11.4205 15.5057 9.5 14.9091 6.90909 14.9091H0.363636L1.52273 11.0909H6.90909C9.68182 11.0909 11.9545 11.5511 13.7273 12.4716C15.5114 13.3807 16.8295 14.6307 17.6818 16.2216C18.5455 17.8011 18.9773 19.5909 18.9773 21.5909C18.9773 23.3977 18.5795 25.0625 17.7841 26.5852C17 28.0966 15.7386 29.3125 14 30.233C12.2727 31.1534 9.98864 31.6136 7.14773 31.6136H7.04545L18.5682 45.7273V46H13.25ZM23.6136 11.0909L22.4545 15.0455L5.06818 14.9091L6.22727 11.0909H23.6136ZM54.2273 11.0909V46H48.9432V16.375H48.7386L40.3864 21.8295V16.7841L49.0966 11.0909H54.2273ZM75.8239 46.5795C73.1307 46.5682 70.8295 45.858 68.9205 44.4489C67.0114 43.0398 65.5511 40.9886 64.5398 38.2955C63.5284 35.6023 63.0227 32.358 63.0227 28.5625C63.0227 24.7784 63.5284 21.5455 64.5398 18.8636C65.5625 16.1818 67.0284 14.1364 68.9375 12.7273C70.858 11.3182 73.1534 10.6136 75.8239 10.6136C78.4943 10.6136 80.7841 11.3239 82.6932 12.7443C84.6023 14.1534 86.0625 16.1989 87.0739 18.8807C88.0966 21.5511 88.608 24.7784 88.608 28.5625C88.608 32.3693 88.1023 35.6193 87.0909 38.3125C86.0795 40.9943 84.6193 43.0455 82.7102 44.4659C80.8011 45.875 78.5057 46.5795 75.8239 46.5795ZM75.8239 42.0284C78.1875 42.0284 80.0341 40.875 81.3636 38.5682C82.7045 36.2614 83.375 32.9261 83.375 28.5625C83.375 25.6648 83.0682 23.2159 82.4545 21.2159C81.8523 19.2045 80.983 17.6818 79.8466 16.6477C78.7216 15.6023 77.3807 15.0795 75.8239 15.0795C73.4716 15.0795 71.625 16.2386 70.2841 18.5568C68.9432 20.875 68.267 24.2102 68.2557 28.5625C68.2557 31.4716 68.5568 33.9318 69.1591 35.9432C69.7727 37.9432 70.642 39.4602 71.767 40.4943C72.892 41.517 74.2443 42.0284 75.8239 42.0284ZM106.808 46.5795C104.115 46.5682 101.814 45.858 99.9048 44.4489C97.9957 43.0398 96.5355 40.9886 95.5241 38.2955C94.5128 35.6023 94.0071 32.358 94.0071 28.5625C94.0071 24.7784 94.5128 21.5455 95.5241 18.8636C96.5469 16.1818 98.0128 14.1364 99.9219 12.7273C101.842 11.3182 104.138 10.6136 106.808 10.6136C109.479 10.6136 111.768 11.3239 113.678 12.7443C115.587 14.1534 117.047 16.1989 118.058 18.8807C119.081 21.5511 119.592 24.7784 119.592 28.5625C119.592 32.3693 119.087 35.6193 118.075 38.3125C117.064 40.9943 115.604 43.0455 113.695 44.4659C111.786 45.875 109.49 46.5795 106.808 46.5795ZM106.808 42.0284C109.172 42.0284 111.018 40.875 112.348 38.5682C113.689 36.2614 114.359 32.9261 114.359 28.5625C114.359 25.6648 114.053 23.2159 113.439 21.2159C112.837 19.2045 111.967 17.6818 110.831 16.6477C109.706 15.6023 108.365 15.0795 106.808 15.0795C104.456 15.0795 102.609 16.2386 101.268 18.5568C99.9276 20.875 99.2514 24.2102 99.2401 28.5625C99.2401 31.4716 99.5412 33.9318 100.143 35.9432C100.757 37.9432 101.626 39.4602 102.751 40.4943C103.876 41.517 105.229 42.0284 106.808 42.0284ZM137.793 46.5795C135.099 46.5682 132.798 45.858 130.889 44.4489C128.98 43.0398 127.52 40.9886 126.509 38.2955C125.497 35.6023 124.991 32.358 124.991 28.5625C124.991 24.7784 125.497 21.5455 126.509 18.8636C127.531 16.1818 128.997 14.1364 130.906 12.7273C132.827 11.3182 135.122 10.6136 137.793 10.6136C140.463 10.6136 142.753 11.3239 144.662 12.7443C146.571 14.1534 148.031 16.1989 149.043 18.8807C150.065 21.5511 150.577 24.7784 150.577 28.5625C150.577 32.3693 150.071 35.6193 149.06 38.3125C148.048 40.9943 146.588 43.0455 144.679 44.4659C142.77 45.875 140.474 46.5795 137.793 46.5795ZM137.793 42.0284C140.156 42.0284 142.003 40.875 143.332 38.5682C144.673 36.2614 145.344 32.9261 145.344 28.5625C145.344 25.6648 145.037 23.2159 144.423 21.2159C143.821 19.2045 142.952 17.6818 141.815 16.6477C140.69 15.6023 139.349 15.0795 137.793 15.0795C135.44 15.0795 133.594 16.2386 132.253 18.5568C130.912 20.875 130.236 24.2102 130.224 28.5625C130.224 31.4716 130.526 33.9318 131.128 35.9432C131.741 37.9432 132.611 39.4602 133.736 40.4943C134.861 41.517 136.213 42.0284 137.793 42.0284ZM174.626 0.687997L161.57 54.4H156.194L169.202 0.687997H174.626Z" fill="white"/>
<path d="M189.778 42.592H182.794L181.594 46H178.738L184.714 29.296H187.882L193.858 46H190.978L189.778 42.592ZM189.01 40.36L186.298 32.608L183.562 40.36H189.01ZM199.192 34.72C199.656 34.112 200.288 33.6 201.088 33.184C201.888 32.768 202.792 32.56 203.8 32.56C204.952 32.56 206 32.848 206.944 33.424C207.904 33.984 208.656 34.776 209.2 35.8C209.744 36.824 210.016 38 210.016 39.328C210.016 40.656 209.744 41.848 209.2 42.904C208.656 43.944 207.904 44.76 206.944 45.352C206 45.928 204.952 46.216 203.8 46.216C202.792 46.216 201.896 46.016 201.112 45.616C200.328 45.2 199.688 44.688 199.192 44.08V52.288H196.456V32.776H199.192V34.72ZM207.232 39.328C207.232 38.416 207.04 37.632 206.656 36.976C206.288 36.304 205.792 35.8 205.168 35.464C204.56 35.112 203.904 34.936 203.2 34.936C202.512 34.936 201.856 35.112 201.232 35.464C200.624 35.816 200.128 36.328 199.744 37C199.376 37.672 199.192 38.464 199.192 39.376C199.192 40.288 199.376 41.088 199.744 41.776C200.128 42.448 200.624 42.96 201.232 43.312C201.856 43.664 202.512 43.84 203.2 43.84C203.904 43.84 204.56 43.664 205.168 43.312C205.792 42.944 206.288 42.416 206.656 41.728C207.04 41.04 207.232 40.24 207.232 39.328ZM215.458 34.72C215.922 34.112 216.554 33.6 217.354 33.184C218.154 32.768 219.058 32.56 220.066 32.56C221.218 32.56 222.266 32.848 223.21 33.424C224.17 33.984 224.922 34.776 225.466 35.8C226.01 36.824 226.282 38 226.282 39.328C226.282 40.656 226.01 41.848 225.466 42.904C224.922 43.944 224.17 44.76 223.21 45.352C222.266 45.928 221.218 46.216 220.066 46.216C219.058 46.216 218.162 46.016 217.378 45.616C216.594 45.2 215.954 44.688 215.458 44.08V52.288H212.722V32.776H215.458V34.72ZM223.498 39.328C223.498 38.416 223.306 37.632 222.922 36.976C222.554 36.304 222.058 35.8 221.434 35.464C220.826 35.112 220.17 34.936 219.466 34.936C218.778 34.936 218.122 35.112 217.498 35.464C216.89 35.816 216.394 36.328 216.01 37C215.642 37.672 215.458 38.464 215.458 39.376C215.458 40.288 215.642 41.088 216.01 41.776C216.394 42.448 216.89 42.96 217.498 43.312C218.122 43.664 218.778 43.84 219.466 43.84C220.17 43.84 220.826 43.664 221.434 43.312C222.058 42.944 222.554 42.416 222.922 41.728C223.306 41.04 223.498 40.24 223.498 39.328ZM231.724 28.24V46H228.988V28.24H231.724ZM236.708 31.024C236.212 31.024 235.796 30.856 235.46 30.52C235.124 30.184 234.956 29.768 234.956 29.272C234.956 28.776 235.124 28.36 235.46 28.024C235.796 27.688 236.212 27.52 236.708 27.52C237.188 27.52 237.596 27.688 237.932 28.024C238.268 28.36 238.436 28.776 238.436 29.272C238.436 29.768 238.268 30.184 237.932 30.52C237.596 30.856 237.188 31.024 236.708 31.024ZM238.052 32.776V46H235.316V32.776H238.052ZM240.732 39.376C240.732 38.016 241.004 36.824 241.548 35.8C242.108 34.76 242.876 33.96 243.852 33.4C244.828 32.84 245.948 32.56 247.212 32.56C248.812 32.56 250.132 32.944 251.172 33.712C252.228 34.464 252.94 35.544 253.308 36.952H250.356C250.116 36.296 249.732 35.784 249.204 35.416C248.676 35.048 248.012 34.864 247.212 34.864C246.092 34.864 245.196 35.264 244.524 36.064C243.868 36.848 243.54 37.952 243.54 39.376C243.54 40.8 243.868 41.912 244.524 42.712C245.196 43.512 246.092 43.912 247.212 43.912C248.796 43.912 249.844 43.216 250.356 41.824H253.308C252.924 43.168 252.204 44.24 251.148 45.04C250.092 45.824 248.78 46.216 247.212 46.216C245.948 46.216 244.828 45.936 243.852 45.376C242.876 44.8 242.108 44 241.548 42.976C241.004 41.936 240.732 40.736 240.732 39.376ZM255.122 39.328C255.122 38 255.394 36.824 255.938 35.8C256.498 34.776 257.25 33.984 258.194 33.424C259.154 32.848 260.21 32.56 261.362 32.56C262.402 32.56 263.306 32.768 264.074 33.184C264.858 33.584 265.482 34.088 265.946 34.696V32.776H268.706V46H265.946V44.032C265.482 44.656 264.85 45.176 264.05 45.592C263.25 46.008 262.338 46.216 261.314 46.216C260.178 46.216 259.138 45.928 258.194 45.352C257.25 44.76 256.498 43.944 255.938 42.904C255.394 41.848 255.122 40.656 255.122 39.328ZM265.946 39.376C265.946 38.464 265.754 37.672 265.37 37C265.002 36.328 264.514 35.816 263.906 35.464C263.298 35.112 262.642 34.936 261.938 34.936C261.234 34.936 260.578 35.112 259.97 35.464C259.362 35.8 258.866 36.304 258.482 36.976C258.114 37.632 257.93 38.416 257.93 39.328C257.93 40.24 258.114 41.04 258.482 41.728C258.866 42.416 259.362 42.944 259.97 43.312C260.594 43.664 261.25 43.84 261.938 43.84C262.642 43.84 263.298 43.664 263.906 43.312C264.514 42.96 265.002 42.448 265.37 41.776C265.754 41.088 265.946 40.288 265.946 39.376ZM275.492 35.008V42.328C275.492 42.824 275.604 43.184 275.828 43.408C276.068 43.616 276.468 43.72 277.028 43.72H278.708V46H276.548C275.316 46 274.372 45.712 273.716 45.136C273.06 44.56 272.732 43.624 272.732 42.328V35.008H271.172V32.776H272.732V29.488H275.492V32.776H278.708V35.008H275.492ZM282.622 31.024C282.126 31.024 281.71 30.856 281.374 30.52C281.038 30.184 280.87 29.768 280.87 29.272C280.87 28.776 281.038 28.36 281.374 28.024C281.71 27.688 282.126 27.52 282.622 27.52C283.102 27.52 283.51 27.688 283.846 28.024C284.182 28.36 284.35 28.776 284.35 29.272C284.35 29.768 284.182 30.184 283.846 30.52C283.51 30.856 283.102 31.024 282.622 31.024ZM283.966 32.776V46H281.23V32.776H283.966ZM293.294 46.216C292.046 46.216 290.918 45.936 289.91 45.376C288.902 44.8 288.11 44 287.534 42.976C286.958 41.936 286.67 40.736 286.67 39.376C286.67 38.032 286.966 36.84 287.558 35.8C288.15 34.76 288.958 33.96 289.982 33.4C291.006 32.84 292.15 32.56 293.414 32.56C294.678 32.56 295.822 32.84 296.846 33.4C297.87 33.96 298.678 34.76 299.27 35.8C299.862 36.84 300.158 38.032 300.158 39.376C300.158 40.72 299.854 41.912 299.246 42.952C298.638 43.992 297.806 44.8 296.75 45.376C295.71 45.936 294.558 46.216 293.294 46.216ZM293.294 43.84C293.998 43.84 294.654 43.672 295.262 43.336C295.886 43 296.39 42.496 296.774 41.824C297.158 41.152 297.35 40.336 297.35 39.376C297.35 38.416 297.166 37.608 296.798 36.952C296.43 36.28 295.942 35.776 295.334 35.44C294.726 35.104 294.07 34.936 293.366 34.936C292.662 34.936 292.006 35.104 291.398 35.44C290.806 35.776 290.334 36.28 289.982 36.952C289.63 37.608 289.454 38.416 289.454 39.376C289.454 40.8 289.814 41.904 290.534 42.688C291.27 43.456 292.19 43.84 293.294 43.84ZM309.535 32.56C310.575 32.56 311.503 32.776 312.319 33.208C313.151 33.64 313.799 34.28 314.263 35.128C314.727 35.976 314.959 37 314.959 38.2V46H312.247V38.608C312.247 37.424 311.951 36.52 311.359 35.896C310.767 35.256 309.959 34.936 308.935 34.936C307.911 34.936 307.095 35.256 306.487 35.896C305.895 36.52 305.599 37.424 305.599 38.608V46H302.863V32.776H305.599V34.288C306.047 33.744 306.615 33.32 307.303 33.016C308.007 32.712 308.751 32.56 309.535 32.56ZM334.499 29.32V31.552H327.419V36.472H332.939V38.704H327.419V46H324.683V29.32H334.499ZM349.154 39.064C349.154 39.56 349.122 40.008 349.058 40.408H338.954C339.034 41.464 339.426 42.312 340.13 42.952C340.834 43.592 341.698 43.912 342.722 43.912C344.194 43.912 345.234 43.296 345.842 42.064H348.794C348.394 43.28 347.666 44.28 346.61 45.064C345.57 45.832 344.274 46.216 342.722 46.216C341.458 46.216 340.322 45.936 339.314 45.376C338.322 44.8 337.538 44 336.962 42.976C336.402 41.936 336.122 40.736 336.122 39.376C336.122 38.016 336.394 36.824 336.938 35.8C337.498 34.76 338.274 33.96 339.266 33.4C340.274 32.84 341.426 32.56 342.722 32.56C343.97 32.56 345.082 32.832 346.058 33.376C347.034 33.92 347.794 34.688 348.338 35.68C348.882 36.656 349.154 37.784 349.154 39.064ZM346.298 38.2C346.282 37.192 345.922 36.384 345.218 35.776C344.514 35.168 343.642 34.864 342.602 34.864C341.658 34.864 340.85 35.168 340.178 35.776C339.506 36.368 339.106 37.176 338.978 38.2H346.298ZM363.967 39.064C363.967 39.56 363.935 40.008 363.871 40.408H353.767C353.847 41.464 354.239 42.312 354.943 42.952C355.647 43.592 356.511 43.912 357.535 43.912C359.007 43.912 360.047 43.296 360.655 42.064H363.607C363.207 43.28 362.479 44.28 361.423 45.064C360.383 45.832 359.087 46.216 357.535 46.216C356.271 46.216 355.135 45.936 354.127 45.376C353.135 44.8 352.351 44 351.775 42.976C351.215 41.936 350.935 40.736 350.935 39.376C350.935 38.016 351.207 36.824 351.751 35.8C352.311 34.76 353.087 33.96 354.079 33.4C355.087 32.84 356.239 32.56 357.535 32.56C358.783 32.56 359.895 32.832 360.871 33.376C361.847 33.92 362.607 34.688 363.151 35.68C363.695 36.656 363.967 37.784 363.967 39.064ZM361.111 38.2C361.095 37.192 360.735 36.384 360.031 35.776C359.327 35.168 358.455 34.864 357.415 34.864C356.471 34.864 355.663 35.168 354.991 35.776C354.319 36.368 353.919 37.176 353.791 38.2H361.111Z" fill="#D9D9D9"/>
</svg>
