<svg width="509" height="72" viewBox="0 0 509 72" fill="none" xmlns="http://www.w3.org/2000/svg">
<rect y="5" width="136" height="62" fill="#FF0000"/>
<path d="M31.6435 35.864C33.4355 36.184 34.9555 37.128 36.2035 38.696C37.4515 40.264 38.0755 42.04 38.0755 44.024C38.0755 45.72 37.6275 47.256 36.7315 48.632C35.8675 49.976 34.6035 51.048 32.9395 51.848C31.2755 52.616 29.3395 53 27.1315 53H13.7875V19.64H26.5075C28.7795 19.64 30.7315 20.024 32.3635 20.792C33.9955 21.56 35.2275 22.6 36.0595 23.912C36.8915 25.192 37.3075 26.632 37.3075 28.232C37.3075 30.152 36.7955 31.752 35.7715 33.032C34.7475 34.312 33.3715 35.256 31.6435 35.864ZM19.2595 33.656H26.0275C27.8195 33.656 29.2115 33.256 30.2035 32.456C31.2275 31.624 31.7395 30.44 31.7395 28.904C31.7395 27.4 31.2275 26.232 30.2035 25.4C29.2115 24.536 27.8195 24.104 26.0275 24.104H19.2595V33.656ZM26.6515 48.536C28.5075 48.536 29.9635 48.088 31.0195 47.192C32.0755 46.296 32.6035 45.048 32.6035 43.448C32.6035 41.816 32.0435 40.52 30.9235 39.56C29.8035 38.6 28.3155 38.12 26.4595 38.12H19.2595V48.536H26.6515ZM55.4939 53.432C52.9979 53.432 50.7419 52.872 48.7259 51.752C46.7099 50.6 45.1259 49 43.9739 46.952C42.8219 44.872 42.2459 42.472 42.2459 39.752C42.2459 37.064 42.8379 34.68 44.0219 32.6C45.2059 30.52 46.8219 28.92 48.8699 27.8C50.9179 26.68 53.2059 26.12 55.7339 26.12C58.2619 26.12 60.5499 26.68 62.5979 27.8C64.6459 28.92 66.2619 30.52 67.4459 32.6C68.6299 34.68 69.2219 37.064 69.2219 39.752C69.2219 42.44 68.6139 44.824 67.3979 46.904C66.1819 48.984 64.5179 50.6 62.4059 51.752C60.3259 52.872 58.0219 53.432 55.4939 53.432ZM55.4939 48.68C56.9019 48.68 58.2139 48.344 59.4299 47.672C60.6779 47 61.6859 45.992 62.4539 44.648C63.2219 43.304 63.6059 41.672 63.6059 39.752C63.6059 37.832 63.2379 36.216 62.5019 34.904C61.7659 33.56 60.7899 32.552 59.5739 31.88C58.3579 31.208 57.0459 30.872 55.6379 30.872C54.2299 30.872 52.9179 31.208 51.7019 31.88C50.5179 32.552 49.5739 33.56 48.8699 34.904C48.1659 36.216 47.8139 37.832 47.8139 39.752C47.8139 42.6 48.5339 44.808 49.9739 46.376C51.4459 47.912 53.2859 48.68 55.4939 48.68ZM86.1033 53.432C83.6073 53.432 81.3513 52.872 79.3353 51.752C77.3193 50.6 75.7353 49 74.5833 46.952C73.4313 44.872 72.8553 42.472 72.8553 39.752C72.8553 37.064 73.4473 34.68 74.6313 32.6C75.8153 30.52 77.4313 28.92 79.4793 27.8C81.5273 26.68 83.8153 26.12 86.3433 26.12C88.8713 26.12 91.1593 26.68 93.2073 27.8C95.2553 28.92 96.8713 30.52 98.0553 32.6C99.2393 34.68 99.8313 37.064 99.8313 39.752C99.8313 42.44 99.2233 44.824 98.0073 46.904C96.7913 48.984 95.1273 50.6 93.0153 51.752C90.9353 52.872 88.6313 53.432 86.1033 53.432ZM86.1033 48.68C87.5113 48.68 88.8233 48.344 90.0393 47.672C91.2873 47 92.2953 45.992 93.0633 44.648C93.8313 43.304 94.2153 41.672 94.2153 39.752C94.2153 37.832 93.8473 36.216 93.1113 34.904C92.3753 33.56 91.3993 32.552 90.1833 31.88C88.9673 31.208 87.6553 30.872 86.2473 30.872C84.8393 30.872 83.5273 31.208 82.3113 31.88C81.1273 32.552 80.1833 33.56 79.4793 34.904C78.7753 36.216 78.4233 37.832 78.4233 39.752C78.4233 42.6 79.1433 44.808 80.5833 46.376C82.0553 47.912 83.8953 48.68 86.1033 48.68ZM115.705 39.8L127.897 53H120.505L110.713 41.624V53H105.241V17.48H110.713V38.12L120.313 26.552H127.897L115.705 39.8ZM168.096 26.552L151.872 65.432H146.208L151.584 52.568L141.168 26.552H147.264L154.704 46.712L162.432 26.552H168.096ZM183.697 53.432C181.201 53.432 178.945 52.872 176.929 51.752C174.913 50.6 173.329 49 172.177 46.952C171.025 44.872 170.449 42.472 170.449 39.752C170.449 37.064 171.041 34.68 172.225 32.6C173.409 30.52 175.025 28.92 177.073 27.8C179.121 26.68 181.409 26.12 183.937 26.12C186.465 26.12 188.753 26.68 190.801 27.8C192.849 28.92 194.465 30.52 195.649 32.6C196.833 34.68 197.425 37.064 197.425 39.752C197.425 42.44 196.817 44.824 195.601 46.904C194.385 48.984 192.721 50.6 190.609 51.752C188.529 52.872 186.225 53.432 183.697 53.432ZM183.697 48.68C185.105 48.68 186.417 48.344 187.633 47.672C188.881 47 189.889 45.992 190.657 44.648C191.425 43.304 191.809 41.672 191.809 39.752C191.809 37.832 191.441 36.216 190.705 34.904C189.969 33.56 188.993 32.552 187.777 31.88C186.561 31.208 185.249 30.872 183.841 30.872C182.433 30.872 181.121 31.208 179.905 31.88C178.721 32.552 177.777 33.56 177.073 34.904C176.369 36.216 176.017 37.832 176.017 39.752C176.017 42.6 176.737 44.808 178.177 46.376C179.649 47.912 181.489 48.68 183.697 48.68ZM226.786 26.552V53H221.314V49.88C220.45 50.968 219.314 51.832 217.906 52.472C216.53 53.08 215.058 53.384 213.49 53.384C211.41 53.384 209.538 52.952 207.874 52.088C206.242 51.224 204.946 49.944 203.986 48.248C203.058 46.552 202.594 44.504 202.594 42.104V26.552H208.018V41.288C208.018 43.656 208.61 45.48 209.794 46.76C210.978 48.008 212.594 48.632 214.642 48.632C216.69 48.632 218.306 48.008 219.49 46.76C220.706 45.48 221.314 43.656 221.314 41.288V26.552H226.786ZM239.478 30.392C240.278 29.048 241.334 28.008 242.646 27.272C243.99 26.504 245.574 26.12 247.398 26.12V31.784H246.006C243.862 31.784 242.23 32.328 241.11 33.416C240.022 34.504 239.478 36.392 239.478 39.08V53H234.006V26.552H239.478V30.392ZM407.053 26.12C409.133 26.12 410.989 26.552 412.621 27.416C414.285 28.28 415.581 29.56 416.509 31.256C417.437 32.952 417.901 35 417.901 37.4V53H412.477V38.216C412.477 35.848 411.885 34.04 410.701 32.792C409.517 31.512 407.901 30.872 405.853 30.872C403.805 30.872 402.173 31.512 400.957 32.792C399.773 34.04 399.181 35.848 399.181 38.216V53H393.709V26.552H399.181V29.576C400.077 28.488 401.213 27.64 402.589 27.032C403.997 26.424 405.485 26.12 407.053 26.12ZM436.353 53.432C433.857 53.432 431.601 52.872 429.585 51.752C427.569 50.6 425.985 49 424.833 46.952C423.681 44.872 423.105 42.472 423.105 39.752C423.105 37.064 423.697 34.68 424.881 32.6C426.065 30.52 427.681 28.92 429.729 27.8C431.777 26.68 434.065 26.12 436.593 26.12C439.121 26.12 441.409 26.68 443.457 27.8C445.505 28.92 447.121 30.52 448.305 32.6C449.489 34.68 450.081 37.064 450.081 39.752C450.081 42.44 449.473 44.824 448.257 46.904C447.041 48.984 445.377 50.6 443.265 51.752C441.185 52.872 438.881 53.432 436.353 53.432ZM436.353 48.68C437.761 48.68 439.073 48.344 440.289 47.672C441.537 47 442.545 45.992 443.313 44.648C444.081 43.304 444.465 41.672 444.465 39.752C444.465 37.832 444.097 36.216 443.361 34.904C442.625 33.56 441.649 32.552 440.433 31.88C439.217 31.208 437.905 30.872 436.497 30.872C435.089 30.872 433.777 31.208 432.561 31.88C431.377 32.552 430.433 33.56 429.729 34.904C429.025 36.216 428.673 37.832 428.673 39.752C428.673 42.6 429.393 44.808 430.833 46.376C432.305 47.912 434.145 48.68 436.353 48.68ZM491.011 26.552L482.803 53H477.043L471.715 33.464L466.387 53H460.627L452.371 26.552H457.939L463.459 47.816L469.075 26.552H474.787L480.163 47.72L485.635 26.552H491.011Z" fill="white"/>
<path d="M270.369 30.44C271.297 29.224 272.561 28.2 274.161 27.368C275.761 26.536 277.569 26.12 279.585 26.12C281.889 26.12 283.985 26.696 285.873 27.848C287.793 28.968 289.297 30.552 290.385 32.6C291.473 34.648 292.017 37 292.017 39.656C292.017 42.312 291.473 44.696 290.385 46.808C289.297 48.888 287.793 50.52 285.873 51.704C283.985 52.856 281.889 53.432 279.585 53.432C277.569 53.432 275.777 53.032 274.209 52.232C272.641 51.4 271.361 50.376 270.369 49.16V65.576H264.897V26.552H270.369V30.44ZM286.449 39.656C286.449 37.832 286.065 36.264 285.297 34.952C284.561 33.608 283.569 32.6 282.321 31.928C281.105 31.224 279.793 30.872 278.385 30.872C277.009 30.872 275.697 31.224 274.449 31.928C273.233 32.632 272.241 33.656 271.473 35C270.737 36.344 270.369 37.928 270.369 39.752C270.369 41.576 270.737 43.176 271.473 44.552C272.241 45.896 273.233 46.92 274.449 47.624C275.697 48.328 277.009 48.68 278.385 48.68C279.793 48.68 281.105 48.328 282.321 47.624C283.569 46.888 284.561 45.832 285.297 44.456C286.065 43.08 286.449 41.48 286.449 39.656ZM295.604 39.656C295.604 37 296.148 34.648 297.236 32.6C298.356 30.552 299.86 28.968 301.748 27.848C303.668 26.696 305.78 26.12 308.084 26.12C310.164 26.12 311.972 26.536 313.508 27.368C315.076 28.168 316.324 29.176 317.252 30.392V26.552H322.772V53H317.252V49.064C316.324 50.312 315.06 51.352 313.46 52.184C311.86 53.016 310.036 53.432 307.988 53.432C305.716 53.432 303.636 52.856 301.748 51.704C299.86 50.52 298.356 48.888 297.236 46.808C296.148 44.696 295.604 42.312 295.604 39.656ZM317.252 39.752C317.252 37.928 316.868 36.344 316.1 35C315.364 33.656 314.388 32.632 313.172 31.928C311.956 31.224 310.644 30.872 309.236 30.872C307.828 30.872 306.516 31.224 305.3 31.928C304.084 32.6 303.092 33.608 302.324 34.952C301.588 36.264 301.22 37.832 301.22 39.656C301.22 41.48 301.588 43.08 302.324 44.456C303.092 45.832 304.084 46.888 305.3 47.624C306.548 48.328 307.86 48.68 309.236 48.68C310.644 48.68 311.956 48.328 313.172 47.624C314.388 46.92 315.364 45.896 316.1 44.552C316.868 43.176 317.252 41.576 317.252 39.752ZM339.559 53.432C337.479 53.432 335.607 53.064 333.943 52.328C332.311 51.56 331.015 50.536 330.055 49.256C329.095 47.944 328.583 46.488 328.519 44.888H334.183C334.279 46.008 334.807 46.952 335.767 47.72C336.759 48.456 337.991 48.824 339.463 48.824C340.999 48.824 342.183 48.536 343.015 47.96C343.879 47.352 344.311 46.584 344.311 45.656C344.311 44.664 343.831 43.928 342.871 43.448C341.943 42.968 340.455 42.44 338.407 41.864C336.423 41.32 334.807 40.792 333.559 40.28C332.311 39.768 331.223 38.984 330.295 37.928C329.399 36.872 328.951 35.48 328.951 33.752C328.951 32.344 329.367 31.064 330.199 29.912C331.031 28.728 332.215 27.8 333.751 27.128C335.319 26.456 337.111 26.12 339.127 26.12C342.135 26.12 344.551 26.888 346.375 28.424C348.231 29.928 349.223 31.992 349.351 34.616H343.879C343.783 33.432 343.303 32.488 342.439 31.784C341.575 31.08 340.407 30.728 338.935 30.728C337.495 30.728 336.391 31 335.623 31.544C334.855 32.088 334.471 32.808 334.471 33.704C334.471 34.408 334.727 35 335.239 35.48C335.751 35.96 336.375 36.344 337.111 36.632C337.847 36.888 338.935 37.224 340.375 37.64C342.295 38.152 343.863 38.68 345.079 39.224C346.327 39.736 347.399 40.504 348.295 41.528C349.191 42.552 349.655 43.912 349.687 45.608C349.687 47.112 349.271 48.456 348.439 49.64C347.607 50.824 346.423 51.752 344.887 52.424C343.383 53.096 341.607 53.432 339.559 53.432ZM365.2 53.432C363.12 53.432 361.248 53.064 359.584 52.328C357.952 51.56 356.656 50.536 355.696 49.256C354.736 47.944 354.224 46.488 354.16 44.888H359.824C359.92 46.008 360.448 46.952 361.408 47.72C362.4 48.456 363.632 48.824 365.104 48.824C366.64 48.824 367.824 48.536 368.656 47.96C369.52 47.352 369.952 46.584 369.952 45.656C369.952 44.664 369.472 43.928 368.512 43.448C367.584 42.968 366.096 42.44 364.048 41.864C362.064 41.32 360.448 40.792 359.2 40.28C357.952 39.768 356.864 38.984 355.936 37.928C355.04 36.872 354.592 35.48 354.592 33.752C354.592 32.344 355.008 31.064 355.84 29.912C356.672 28.728 357.856 27.8 359.392 27.128C360.96 26.456 362.752 26.12 364.768 26.12C367.776 26.12 370.192 26.888 372.016 28.424C373.872 29.928 374.864 31.992 374.992 34.616H369.52C369.424 33.432 368.944 32.488 368.08 31.784C367.216 31.08 366.048 30.728 364.576 30.728C363.136 30.728 362.032 31 361.264 31.544C360.496 32.088 360.112 32.808 360.112 33.704C360.112 34.408 360.368 35 360.88 35.48C361.392 35.96 362.016 36.344 362.752 36.632C363.488 36.888 364.576 37.224 366.016 37.64C367.936 38.152 369.504 38.68 370.72 39.224C371.968 39.736 373.04 40.504 373.936 41.528C374.832 42.552 375.296 43.912 375.328 45.608C375.328 47.112 374.912 48.456 374.08 49.64C373.248 50.824 372.064 51.752 370.528 52.424C369.024 53.096 367.248 53.432 365.2 53.432Z" fill="#FF0000"/>
</svg>
