<svg width="664" height="124" viewBox="0 0 664 124" fill="none" xmlns="http://www.w3.org/2000/svg">
<path d="M64.128 25.328L51.648 70H41.088L32.704 38.192L23.936 70L13.44 70.064L1.408 25.328H11.008L18.88 60.016L27.968 25.328H37.952L46.528 59.824L54.464 25.328H64.128ZM89.9465 34.032C92.6345 34.032 95.0238 34.6293 97.1145 35.824C99.2052 36.976 100.827 38.704 101.979 41.008C103.173 43.2693 103.771 46 103.771 49.2V70H94.8105V50.416C94.8105 47.6 94.1065 45.4453 92.6985 43.952C91.2905 42.416 89.3705 41.648 86.9385 41.648C84.4638 41.648 82.5012 42.416 81.0505 43.952C79.6425 45.4453 78.9385 47.6 78.9385 50.416V70H69.9785V22.64H78.9385V38.96C80.0905 37.424 81.6265 36.2293 83.5465 35.376C85.4665 34.48 87.5998 34.032 89.9465 34.032ZM109.987 52.144C109.987 48.56 110.691 45.3813 112.099 42.608C113.55 39.8347 115.491 37.7013 117.923 36.208C120.398 34.7147 123.15 33.968 126.179 33.968C128.824 33.968 131.128 34.5013 133.091 35.568C135.096 36.6347 136.696 37.9787 137.891 39.6V34.544H146.915V70H137.891V64.816C136.739 66.48 135.139 67.8667 133.091 68.976C131.086 70.0427 128.76 70.576 126.115 70.576C123.128 70.576 120.398 69.808 117.923 68.272C115.491 66.736 113.55 64.5813 112.099 61.808C110.691 58.992 109.987 55.7707 109.987 52.144ZM137.891 52.272C137.891 50.096 137.464 48.24 136.611 46.704C135.758 45.1253 134.606 43.9307 133.155 43.12C131.704 42.2667 130.147 41.84 128.483 41.84C126.819 41.84 125.283 42.2453 123.875 43.056C122.467 43.8667 121.315 45.0613 120.419 46.64C119.566 48.176 119.139 50.0107 119.139 52.144C119.139 54.2773 119.566 56.1547 120.419 57.776C121.315 59.3547 122.467 60.5707 123.875 61.424C125.326 62.2773 126.862 62.704 128.483 62.704C130.147 62.704 131.704 62.2987 133.155 61.488C134.606 60.6347 135.758 59.44 136.611 57.904C137.464 56.3253 137.891 54.448 137.891 52.272ZM166.098 41.904V59.056C166.098 60.2507 166.375 61.1253 166.93 61.68C167.527 62.192 168.509 62.448 169.874 62.448H174.034V70H168.402C160.85 70 157.074 66.3307 157.074 58.992V41.904H152.85V34.544H157.074V25.776H166.098V34.544H174.034V41.904H166.098ZM200.273 30.32C198.694 30.32 197.371 29.8293 196.305 28.848C195.281 27.824 194.769 26.5653 194.769 25.072C194.769 23.5787 195.281 22.3413 196.305 21.36C197.371 20.336 198.694 19.824 200.273 19.824C201.851 19.824 203.153 20.336 204.177 21.36C205.243 22.3413 205.777 23.5787 205.777 25.072C205.777 26.5653 205.243 27.824 204.177 28.848C203.153 29.8293 201.851 30.32 200.273 30.32ZM204.689 34.544V70H195.729V34.544H204.689ZM227.109 70.576C224.208 70.576 221.605 70.064 219.301 69.04C216.997 67.9733 215.162 66.544 213.797 64.752C212.474 62.96 211.749 60.976 211.621 58.8H220.645C220.816 60.1653 221.477 61.296 222.629 62.192C223.824 63.088 225.296 63.536 227.045 63.536C228.752 63.536 230.074 63.1947 231.013 62.512C231.994 61.8293 232.485 60.9547 232.485 59.888C232.485 58.736 231.888 57.8827 230.693 57.328C229.541 56.7307 227.685 56.0907 225.125 55.408C222.48 54.768 220.304 54.1067 218.597 53.424C216.933 52.7413 215.482 51.696 214.245 50.288C213.05 48.88 212.453 46.9813 212.453 44.592C212.453 42.6293 213.008 40.8373 214.117 39.216C215.269 37.5947 216.89 36.3147 218.981 35.376C221.114 34.4373 223.61 33.968 226.469 33.968C230.693 33.968 234.064 35.0347 236.581 37.168C239.098 39.2587 240.485 42.096 240.741 45.68H232.165C232.037 44.272 231.44 43.1627 230.373 42.352C229.349 41.4987 227.962 41.072 226.213 41.072C224.592 41.072 223.333 41.3707 222.437 41.968C221.584 42.5653 221.157 43.3973 221.157 44.464C221.157 45.6587 221.754 46.576 222.949 47.216C224.144 47.8133 226 48.432 228.517 49.072C231.077 49.712 233.189 50.3733 234.853 51.056C236.517 51.7387 237.946 52.8053 239.141 54.256C240.378 55.664 241.018 57.5413 241.061 59.888C241.061 61.936 240.485 63.7707 239.333 65.392C238.224 67.0133 236.602 68.2933 234.469 69.232C232.378 70.128 229.925 70.576 227.109 70.576Z" fill="#E9280B"/>
<path d="M20.412 84.728V89.66H13.716V110H7.56V89.66H0.864V84.728H20.412ZM29.6575 89.66V94.772H37.9015V99.524H29.6575V105.068H38.9815V110H23.5015V84.728H38.9815V89.66H29.6575ZM52.4461 84.728C55.1101 84.728 57.4381 85.256 59.4301 86.312C61.4221 87.368 62.9581 88.856 64.0381 90.776C65.1421 92.672 65.6941 94.868 65.6941 97.364C65.6941 99.836 65.1421 102.032 64.0381 103.952C62.9581 105.872 61.4101 107.36 59.3941 108.416C57.4021 109.472 55.0861 110 52.4461 110H42.9781V84.728H52.4461ZM52.0501 104.672C54.3781 104.672 56.1901 104.036 57.4861 102.764C58.7821 101.492 59.4301 99.692 59.4301 97.364C59.4301 95.036 58.7821 93.224 57.4861 91.928C56.1901 90.632 54.3781 89.984 52.0501 89.984H49.1341V104.672H52.0501ZM81.0143 110L77.1623 104.42L73.9223 110H67.2623L73.8863 99.74L67.0823 89.912H73.9943L77.8463 95.456L81.0863 89.912H87.7463L81.0143 100.028L87.9263 110H81.0143ZM107.074 92.72C106.618 91.88 105.958 91.244 105.094 90.812C104.254 90.356 103.258 90.128 102.106 90.128C100.114 90.128 98.5184 90.788 97.3184 92.108C96.1184 93.404 95.5184 95.144 95.5184 97.328C95.5184 99.656 96.1424 101.48 97.3904 102.8C98.6624 104.096 100.402 104.744 102.61 104.744C104.122 104.744 105.394 104.36 106.426 103.592C107.482 102.824 108.25 101.72 108.73 100.28H100.918V95.744H114.31V101.468C113.854 103.004 113.074 104.432 111.97 105.752C110.89 107.072 109.51 108.14 107.83 108.956C106.15 109.772 104.254 110.18 102.142 110.18C99.6464 110.18 97.4144 109.64 95.4464 108.56C93.5024 107.456 91.9784 105.932 90.8744 103.988C89.7944 102.044 89.2544 99.824 89.2544 97.328C89.2544 94.832 89.7944 92.612 90.8744 90.668C91.9784 88.7 93.5024 87.176 95.4464 86.096C97.3904 84.992 99.6104 84.44 102.106 84.44C105.13 84.44 107.674 85.172 109.738 86.636C111.826 88.1 113.206 90.128 113.878 92.72H107.074ZM123.876 93.26C124.596 92.156 125.496 91.292 126.576 90.668C127.656 90.02 128.856 89.696 130.176 89.696V96.212H128.484C126.948 96.212 125.796 96.548 125.028 97.22C124.26 97.868 123.876 99.02 123.876 100.676V110H117.72V89.912H123.876V93.26ZM131.895 99.92C131.895 97.856 132.279 96.044 133.047 94.484C133.839 92.924 134.907 91.724 136.251 90.884C137.595 90.044 139.095 89.624 140.751 89.624C142.167 89.624 143.403 89.912 144.459 90.488C145.539 91.064 146.367 91.82 146.943 92.756V89.912H153.099V110H146.943V107.156C146.343 108.092 145.503 108.848 144.423 109.424C143.367 110 142.131 110.288 140.715 110.288C139.083 110.288 137.595 109.868 136.251 109.028C134.907 108.164 133.839 106.952 133.047 105.392C132.279 103.808 131.895 101.984 131.895 99.92ZM146.943 99.956C146.943 98.42 146.511 97.208 145.647 96.32C144.807 95.432 143.775 94.988 142.551 94.988C141.327 94.988 140.283 95.432 139.419 96.32C138.579 97.184 138.159 98.384 138.159 99.92C138.159 101.456 138.579 102.68 139.419 103.592C140.283 104.48 141.327 104.924 142.551 104.924C143.775 104.924 144.807 104.48 145.647 103.592C146.511 102.704 146.943 101.492 146.943 99.956ZM163.708 92.756C164.308 91.82 165.136 91.064 166.192 90.488C167.248 89.912 168.484 89.624 169.9 89.624C171.556 89.624 173.056 90.044 174.4 90.884C175.744 91.724 176.8 92.924 177.568 94.484C178.36 96.044 178.756 97.856 178.756 99.92C178.756 101.984 178.36 103.808 177.568 105.392C176.8 106.952 175.744 108.164 174.4 109.028C173.056 109.868 171.556 110.288 169.9 110.288C168.508 110.288 167.272 110 166.192 109.424C165.136 108.848 164.308 108.104 163.708 107.192V119.576H157.552V89.912H163.708V92.756ZM172.492 99.92C172.492 98.384 172.06 97.184 171.196 96.32C170.356 95.432 169.312 94.988 168.064 94.988C166.84 94.988 165.796 95.432 164.932 96.32C164.092 97.208 163.672 98.42 163.672 99.956C163.672 101.492 164.092 102.704 164.932 103.592C165.796 104.48 166.84 104.924 168.064 104.924C169.288 104.924 170.332 104.48 171.196 103.592C172.06 102.68 172.492 101.456 172.492 99.92ZM194.334 89.696C196.638 89.696 198.486 90.464 199.878 92C201.27 93.512 201.966 95.6 201.966 98.264V110H195.846V99.092C195.846 97.748 195.498 96.704 194.802 95.96C194.106 95.216 193.17 94.844 191.994 94.844C190.818 94.844 189.882 95.216 189.186 95.96C188.49 96.704 188.142 97.748 188.142 99.092V110H181.986V83.36H188.142V92.612C188.766 91.724 189.618 91.016 190.698 90.488C191.778 89.96 192.99 89.696 194.334 89.696ZM209.34 87.824C208.26 87.824 207.372 87.512 206.676 86.888C206.004 86.24 205.668 85.448 205.668 84.512C205.668 83.552 206.004 82.76 206.676 82.136C207.372 81.488 208.26 81.164 209.34 81.164C210.396 81.164 211.26 81.488 211.932 82.136C212.628 82.76 212.976 83.552 212.976 84.512C212.976 85.448 212.628 86.24 211.932 86.888C211.26 87.512 210.396 87.824 209.34 87.824ZM212.4 89.912V110H206.244V89.912H212.4ZM215.637 99.956C215.637 97.868 216.057 96.044 216.897 94.484C217.761 92.924 218.949 91.724 220.461 90.884C221.997 90.044 223.749 89.624 225.717 89.624C228.237 89.624 230.337 90.284 232.017 91.604C233.721 92.924 234.837 94.784 235.365 97.184H228.813C228.261 95.648 227.193 94.88 225.609 94.88C224.481 94.88 223.581 95.324 222.909 96.212C222.237 97.076 221.901 98.324 221.901 99.956C221.901 101.588 222.237 102.848 222.909 103.736C223.581 104.6 224.481 105.032 225.609 105.032C227.193 105.032 228.261 104.264 228.813 102.728H235.365C234.837 105.08 233.721 106.928 232.017 108.272C230.313 109.616 228.213 110.288 225.717 110.288C223.749 110.288 221.997 109.868 220.461 109.028C218.949 108.188 217.761 106.988 216.897 105.428C216.057 103.868 215.637 102.044 215.637 99.956ZM244.814 89.66V94.772H253.058V99.524H244.814V105.068H254.138V110H238.658V84.728H254.138V89.66H244.814ZM264.29 93.26C265.01 92.156 265.91 91.292 266.99 90.668C268.07 90.02 269.27 89.696 270.59 89.696V96.212H268.898C267.362 96.212 266.21 96.548 265.442 97.22C264.674 97.868 264.29 99.02 264.29 100.676V110H258.134V89.912H264.29V93.26ZM272.309 99.92C272.309 97.856 272.693 96.044 273.461 94.484C274.253 92.924 275.321 91.724 276.665 90.884C278.009 90.044 279.509 89.624 281.165 89.624C282.581 89.624 283.817 89.912 284.873 90.488C285.953 91.064 286.781 91.82 287.357 92.756V89.912H293.513V110H287.357V107.156C286.757 108.092 285.917 108.848 284.837 109.424C283.781 110 282.545 110.288 281.129 110.288C279.497 110.288 278.009 109.868 276.665 109.028C275.321 108.164 274.253 106.952 273.461 105.392C272.693 103.808 272.309 101.984 272.309 99.92ZM287.357 99.956C287.357 98.42 286.925 97.208 286.061 96.32C285.221 95.432 284.189 94.988 282.965 94.988C281.741 94.988 280.697 95.432 279.833 96.32C278.993 97.184 278.573 98.384 278.573 99.92C278.573 101.456 278.993 102.68 279.833 103.592C280.697 104.48 281.741 104.924 282.965 104.924C284.189 104.924 285.221 104.48 286.061 103.592C286.925 102.704 287.357 101.492 287.357 99.956ZM304.014 84.728V99.848C304.014 101.36 304.386 102.524 305.13 103.34C305.874 104.156 306.966 104.564 308.406 104.564C309.846 104.564 310.95 104.156 311.718 103.34C312.486 102.524 312.87 101.36 312.87 99.848V84.728H319.026V99.812C319.026 102.068 318.546 103.976 317.586 105.536C316.626 107.096 315.33 108.272 313.698 109.064C312.09 109.856 310.29 110.252 308.298 110.252C306.306 110.252 304.518 109.868 302.934 109.1C301.374 108.308 300.138 107.132 299.226 105.572C298.314 103.988 297.858 102.068 297.858 99.812V84.728H304.014ZM335.589 89.696C337.941 89.696 339.813 90.464 341.205 92C342.621 93.512 343.329 95.6 343.329 98.264V110H337.209V99.092C337.209 97.748 336.861 96.704 336.165 95.96C335.469 95.216 334.533 94.844 333.357 94.844C332.181 94.844 331.245 95.216 330.549 95.96C329.853 96.704 329.505 97.748 329.505 99.092V110H323.349V89.912H329.505V92.576C330.129 91.688 330.969 90.992 332.025 90.488C333.081 89.96 334.269 89.696 335.589 89.696ZM350.703 87.824C349.623 87.824 348.735 87.512 348.039 86.888C347.367 86.24 347.031 85.448 347.031 84.512C347.031 83.552 347.367 82.76 348.039 82.136C348.735 81.488 349.623 81.164 350.703 81.164C351.759 81.164 352.623 81.488 353.295 82.136C353.991 82.76 354.339 83.552 354.339 84.512C354.339 85.448 353.991 86.24 353.295 86.888C352.623 87.512 351.759 87.824 350.703 87.824ZM353.763 89.912V110H347.607V89.912H353.763ZM367.26 104.24L371.616 89.912H378.168L371.04 110H363.444L356.316 89.912H362.904L367.26 104.24ZM399.695 99.632C399.695 100.208 399.659 100.808 399.587 101.432H385.655C385.751 102.68 386.147 103.64 386.843 104.312C387.563 104.96 388.439 105.284 389.471 105.284C391.007 105.284 392.075 104.636 392.675 103.34H399.227C398.891 104.66 398.279 105.848 397.391 106.904C396.527 107.96 395.435 108.788 394.115 109.388C392.795 109.988 391.319 110.288 389.687 110.288C387.719 110.288 385.967 109.868 384.431 109.028C382.895 108.188 381.695 106.988 380.831 105.428C379.967 103.868 379.535 102.044 379.535 99.956C379.535 97.868 379.955 96.044 380.795 94.484C381.659 92.924 382.859 91.724 384.395 90.884C385.931 90.044 387.695 89.624 389.687 89.624C391.631 89.624 393.359 90.032 394.871 90.848C396.383 91.664 397.559 92.828 398.399 94.34C399.263 95.852 399.695 97.616 399.695 99.632ZM393.395 98.012C393.395 96.956 393.035 96.116 392.315 95.492C391.595 94.868 390.695 94.556 389.615 94.556C388.583 94.556 387.707 94.856 386.987 95.456C386.291 96.056 385.859 96.908 385.691 98.012H393.395ZM409.099 93.26C409.819 92.156 410.719 91.292 411.799 90.668C412.879 90.02 414.079 89.696 415.399 89.696V96.212H413.707C412.171 96.212 411.019 96.548 410.251 97.22C409.483 97.868 409.099 99.02 409.099 100.676V110H402.943V89.912H409.099V93.26ZM426.513 110.288C424.761 110.288 423.201 109.988 421.833 109.388C420.465 108.788 419.385 107.972 418.593 106.94C417.801 105.884 417.357 104.708 417.261 103.412H423.345C423.417 104.108 423.741 104.672 424.317 105.104C424.893 105.536 425.601 105.752 426.441 105.752C427.209 105.752 427.797 105.608 428.205 105.32C428.637 105.008 428.853 104.612 428.853 104.132C428.853 103.556 428.553 103.136 427.953 102.872C427.353 102.584 426.381 102.272 425.037 101.936C423.597 101.6 422.397 101.252 421.437 100.892C420.477 100.508 419.649 99.92 418.953 99.128C418.257 98.312 417.909 97.22 417.909 95.852C417.909 94.7 418.221 93.656 418.845 92.72C419.493 91.76 420.429 91.004 421.653 90.452C422.901 89.9 424.377 89.624 426.081 89.624C428.601 89.624 430.581 90.248 432.021 91.496C433.485 92.744 434.325 94.4 434.541 96.464H428.853C428.757 95.768 428.445 95.216 427.917 94.808C427.413 94.4 426.741 94.196 425.901 94.196C425.181 94.196 424.629 94.34 424.245 94.628C423.861 94.892 423.669 95.264 423.669 95.744C423.669 96.32 423.969 96.752 424.569 97.04C425.193 97.328 426.153 97.616 427.449 97.904C428.937 98.288 430.149 98.672 431.085 99.056C432.021 99.416 432.837 100.016 433.533 100.856C434.253 101.672 434.625 102.776 434.649 104.168C434.649 105.344 434.313 106.4 433.641 107.336C432.993 108.248 432.045 108.968 430.797 109.496C429.573 110.024 428.145 110.288 426.513 110.288ZM441.512 87.824C440.432 87.824 439.544 87.512 438.848 86.888C438.176 86.24 437.84 85.448 437.84 84.512C437.84 83.552 438.176 82.76 438.848 82.136C439.544 81.488 440.432 81.164 441.512 81.164C442.568 81.164 443.432 81.488 444.104 82.136C444.8 82.76 445.148 83.552 445.148 84.512C445.148 85.448 444.8 86.24 444.104 86.888C443.432 87.512 442.568 87.824 441.512 87.824ZM444.572 89.912V110H438.416V89.912H444.572ZM460.229 104.78V110H457.097C454.865 110 453.125 109.46 451.877 108.38C450.629 107.276 450.005 105.488 450.005 103.016V95.024H447.557V89.912H450.005V85.016H456.161V89.912H460.193V95.024H456.161V103.088C456.161 103.688 456.305 104.12 456.593 104.384C456.881 104.648 457.361 104.78 458.033 104.78H460.229ZM484.178 89.912L471.578 119.54H464.954L469.562 109.316L461.39 89.912H468.266L472.91 102.476L477.518 89.912H484.178ZM521.18 84.728L514.592 110H507.14L503.108 93.368L498.932 110H491.48L485.072 84.728H491.66L495.296 103.124L499.796 84.728H506.564L510.884 103.124L514.556 84.728H521.18ZM533.411 110.288C531.443 110.288 529.667 109.868 528.083 109.028C526.523 108.188 525.287 106.988 524.375 105.428C523.487 103.868 523.043 102.044 523.043 99.956C523.043 97.892 523.499 96.08 524.411 94.52C525.323 92.936 526.571 91.724 528.155 90.884C529.739 90.044 531.515 89.624 533.483 89.624C535.451 89.624 537.227 90.044 538.811 90.884C540.395 91.724 541.643 92.936 542.555 94.52C543.467 96.08 543.923 97.892 543.923 99.956C543.923 102.02 543.455 103.844 542.519 105.428C541.607 106.988 540.347 108.188 538.739 109.028C537.155 109.868 535.379 110.288 533.411 110.288ZM533.411 104.96C534.587 104.96 535.583 104.528 536.399 103.664C537.239 102.8 537.659 101.564 537.659 99.956C537.659 98.348 537.251 97.112 536.435 96.248C535.643 95.384 534.659 94.952 533.483 94.952C532.283 94.952 531.287 95.384 530.495 96.248C529.703 97.088 529.307 98.324 529.307 99.956C529.307 101.564 529.691 102.8 530.459 103.664C531.251 104.528 532.235 104.96 533.411 104.96ZM572.821 89.696C575.317 89.696 577.297 90.452 578.761 91.964C580.249 93.476 580.993 95.576 580.993 98.264V110H574.873V99.092C574.873 97.796 574.525 96.8 573.829 96.104C573.157 95.384 572.221 95.024 571.021 95.024C569.821 95.024 568.873 95.384 568.177 96.104C567.505 96.8 567.169 97.796 567.169 99.092V110H561.049V99.092C561.049 97.796 560.701 96.8 560.005 96.104C559.333 95.384 558.397 95.024 557.197 95.024C555.997 95.024 555.049 95.384 554.353 96.104C553.681 96.8 553.345 97.796 553.345 99.092V110H547.189V89.912H553.345V92.432C553.969 91.592 554.785 90.932 555.793 90.452C556.801 89.948 557.941 89.696 559.213 89.696C560.725 89.696 562.069 90.02 563.245 90.668C564.445 91.316 565.381 92.24 566.053 93.44C566.749 92.336 567.697 91.436 568.897 90.74C570.097 90.044 571.405 89.696 572.821 89.696ZM604.234 99.632C604.234 100.208 604.198 100.808 604.126 101.432H590.194C590.29 102.68 590.686 103.64 591.382 104.312C592.102 104.96 592.978 105.284 594.01 105.284C595.546 105.284 596.614 104.636 597.214 103.34H603.766C603.43 104.66 602.818 105.848 601.93 106.904C601.066 107.96 599.974 108.788 598.654 109.388C597.334 109.988 595.858 110.288 594.226 110.288C592.258 110.288 590.506 109.868 588.97 109.028C587.434 108.188 586.234 106.988 585.37 105.428C584.506 103.868 584.074 102.044 584.074 99.956C584.074 97.868 584.494 96.044 585.334 94.484C586.198 92.924 587.398 91.724 588.934 90.884C590.47 90.044 592.234 89.624 594.226 89.624C596.17 89.624 597.898 90.032 599.41 90.848C600.922 91.664 602.098 92.828 602.938 94.34C603.802 95.852 604.234 97.616 604.234 99.632ZM597.934 98.012C597.934 96.956 597.574 96.116 596.854 95.492C596.134 94.868 595.234 94.556 594.154 94.556C593.122 94.556 592.246 94.856 591.526 95.456C590.83 96.056 590.398 96.908 590.23 98.012H597.934ZM619.722 89.696C622.074 89.696 623.946 90.464 625.338 92C626.754 93.512 627.462 95.6 627.462 98.264V110H621.342V99.092C621.342 97.748 620.994 96.704 620.298 95.96C619.602 95.216 618.666 94.844 617.49 94.844C616.314 94.844 615.378 95.216 614.682 95.96C613.986 96.704 613.638 97.748 613.638 99.092V110H607.482V89.912H613.638V92.576C614.262 91.688 615.102 90.992 616.158 90.488C617.214 89.96 618.402 89.696 619.722 89.696Z" fill="white"/>
<path d="M644.273 101.091V100.273C644.273 98.3977 644.42 96.9034 644.716 95.7898C645.011 94.6761 645.449 93.7841 646.028 93.1136C646.608 92.4318 647.318 91.8182 648.159 91.2727C648.886 90.7955 649.534 90.3352 650.102 89.892C650.682 89.4489 651.136 88.9773 651.466 88.4773C651.807 87.9773 651.977 87.4091 651.977 86.7727C651.977 86.2045 651.841 85.7045 651.568 85.2727C651.295 84.8409 650.926 84.5057 650.46 84.267C649.994 84.0284 649.477 83.9091 648.909 83.9091C648.295 83.9091 647.727 84.0511 647.205 84.3352C646.693 84.6193 646.278 85.0114 645.96 85.5114C645.653 86.0114 645.5 86.5909 645.5 87.25H636.773C636.795 84.75 637.364 82.7216 638.477 81.1648C639.591 79.5966 641.068 78.4489 642.909 77.7216C644.75 76.983 646.773 76.6136 648.977 76.6136C651.409 76.6136 653.58 76.9716 655.489 77.6875C657.398 78.392 658.903 79.4602 660.006 80.892C661.108 82.3125 661.659 84.0909 661.659 86.2273C661.659 87.6023 661.42 88.8125 660.943 89.858C660.477 90.892 659.824 91.8068 658.983 92.6023C658.153 93.3864 657.182 94.1023 656.068 94.75C655.25 95.2273 654.563 95.7216 654.006 96.233C653.449 96.733 653.028 97.3068 652.744 97.9545C652.46 98.5909 652.318 99.3636 652.318 100.273V101.091H644.273ZM648.432 112.545C647.114 112.545 645.983 112.085 645.04 111.165C644.108 110.233 643.648 109.102 643.659 107.773C643.648 106.477 644.108 105.369 645.04 104.449C645.983 103.528 647.114 103.068 648.432 103.068C649.682 103.068 650.784 103.528 651.739 104.449C652.705 105.369 653.193 106.477 653.205 107.773C653.193 108.659 652.96 109.466 652.506 110.193C652.063 110.909 651.483 111.483 650.767 111.915C650.051 112.335 649.273 112.545 648.432 112.545Z" fill="#E9280B" fill-opacity="0.6"/>
</svg>
